<?xml version="1.0" standalone="no"?>
<!DOCTYPE svg PUBLIC "-//W3C//DTD SVG 20010904//EN"
 "http://www.w3.org/TR/2001/REC-SVG-20010904/DTD/svg10.dtd">
<svg version="1.0" xmlns="http://www.w3.org/2000/svg"
 width="1750.000000pt" height="1750.000000pt" viewBox="0 0 1750.000000 1750.000000"
 preserveAspectRatio="xMidYMid meet">
<metadata>
Created by potrace 1.14, written by Peter Selinger 2001-2017
</metadata>
<g transform="translate(0.000000,1750.000000) scale(0.100000,-0.100000)"
fill="#000000" stroke="none">
<path d="M6221 17283 c-19 -10 -48 -36 -65 -60 l-30 -43 -35 34 c-106 101
-217 82 -291 -47 -16 -29 -33 -58 -37 -65 -6 -9 -19 -3 -52 23 -53 43 -115 48
-162 14 -38 -27 -76 -102 -85 -168 -4 -28 -10 -51 -14 -51 -4 0 -29 9 -54 21
-52 23 -93 19 -137 -12 -46 -32 -63 -83 -61 -180 l2 -87 -43 -10 c-46 -12 -90
-51 -106 -95 -12 -32 -14 -152 -2 -212 7 -36 4 -44 -25 -77 -18 -20 -38 -55
-44 -76 -14 -54 2 -160 34 -227 27 -53 33 -85 17 -85 -5 0 -25 7 -45 15 -33
14 -36 19 -36 55 0 79 -20 141 -60 184 -38 41 -39 41 -112 41 l-73 0 -7 55
c-19 128 -105 230 -194 230 -25 0 -54 -5 -65 -10 -10 -6 -19 -7 -19 -2 0 19
-57 93 -90 117 -54 40 -113 33 -171 -21 l-25 -24 -40 57 c-46 68 -94 91 -150
73 -31 -11 -85 -62 -97 -92 -3 -9 -19 3 -47 34 -48 55 -91 72 -147 56 -47 -13
-111 -76 -119 -117 -9 -43 -21 -47 -52 -18 -60 55 -121 63 -172 21 -50 -42
-63 -79 -67 -179 -1 -49 -3 -91 -3 -93 0 -1 -22 9 -50 23 -29 15 -66 25 -91
25 -35 0 -47 -6 -75 -35 -19 -20 -36 -51 -40 -72 -7 -37 0 -172 12 -210 6 -22
5 -22 -57 -17 -54 4 -69 2 -97 -16 -18 -11 -40 -36 -48 -55 -30 -72 -8 -210
46 -298 17 -27 30 -50 30 -53 0 -2 -10 -4 -22 -4 -40 -1 -103 -36 -136 -75
l-31 -39 -50 47 c-43 40 -56 47 -91 47 -32 0 -48 -7 -80 -36 -22 -20 -42 -35
-43 -33 -2 2 -18 28 -36 57 -57 89 -117 122 -191 102 -45 -12 -72 -46 -91
-113 l-10 -37 -54 59 c-60 64 -106 91 -155 91 -86 0 -158 -90 -175 -218 -7
-49 -9 -53 -29 -47 -11 4 -44 9 -72 12 -48 5 -54 3 -92 -32 -54 -48 -67 -89
-66 -207 l1 -98 -56 0 c-109 -1 -170 -51 -191 -159 -16 -88 10 -175 76 -257
19 -23 34 -47 34 -55 -1 -8 -20 -23 -43 -34 -31 -15 -48 -32 -66 -68 -66 -131
7 -318 141 -363 27 -9 48 -22 48 -30 0 -18 -14 -18 -67 1 -51 18 -79 10 -116
-35 l-27 -32 -41 32 c-78 62 -161 47 -190 -35 -7 -19 -17 -35 -22 -35 -4 0
-24 12 -42 26 -78 59 -160 38 -201 -51 l-25 -54 -56 1 c-53 2 -58 0 -89 -35
-51 -60 -65 -140 -38 -233 5 -20 1 -22 -55 -26 -65 -5 -98 -22 -135 -72 -16
-21 -22 -46 -25 -109 l-3 -82 -46 -39 c-24 -22 -51 -55 -58 -73 -33 -78 -6
-197 63 -273 l44 -49 -32 -56 c-29 -51 -31 -62 -27 -120 7 -75 33 -134 87
-192 38 -41 39 -42 37 -120 -1 -68 3 -84 27 -125 33 -56 85 -101 135 -116 36
-11 37 -13 39 -62 4 -67 32 -119 92 -170 l49 -42 -14 -34 c-19 -45 -18 -154 2
-204 9 -23 14 -44 10 -47 -3 -4 -28 -1 -55 6 -87 22 -151 -23 -151 -107 0 -72
46 -136 108 -148 18 -4 32 -5 32 -2 0 2 -11 19 -24 37 -34 46 -42 86 -22 116
15 23 22 25 82 23 42 -1 63 -5 60 -12 -90 -204 -91 -206 -193 -203 -83 2 -107
-12 -123 -75 -14 -52 2 -109 44 -156 l34 -37 -34 -39 c-66 -76 -68 -169 -7
-237 20 -22 46 -42 59 -45 30 -8 30 -9 -3 -80 -18 -39 -27 -77 -27 -111 -1
-48 3 -56 36 -90 33 -32 44 -37 97 -41 l59 -4 -5 -92 c-5 -89 -4 -92 26 -139
37 -58 83 -80 153 -75 48 3 48 3 64 -37 23 -58 60 -102 105 -125 57 -30 53
-56 -10 -64 -92 -12 -131 -65 -131 -178 l0 -73 -48 -15 c-40 -13 -50 -22 -69
-60 -30 -57 -31 -147 -3 -208 l20 -44 -35 -41 c-31 -36 -35 -47 -35 -96 0 -70
33 -144 96 -218 44 -51 45 -54 34 -91 -12 -45 -1 -119 23 -156 20 -29 90 -79
131 -93 24 -7 33 -19 47 -64 19 -56 50 -90 104 -110 74 -27 75 -28 75 -58 0
-71 51 -117 139 -128 39 -4 58 -1 91 16 43 22 60 21 60 -6 0 -54 103 -123 183
-123 l47 0 0 -66 c0 -45 7 -81 21 -115 l22 -50 -37 -37 c-31 -33 -36 -44 -36
-87 0 -34 8 -61 25 -92 l26 -43 -26 -35 c-37 -48 -54 -110 -43 -161 12 -55 67
-118 123 -140 25 -9 45 -19 45 -21 0 -2 -6 -16 -14 -31 -15 -29 -19 -55 -17
-115 1 -47 49 -102 106 -121 36 -13 41 -18 48 -58 5 -23 11 -53 13 -66 7 -34
55 -81 99 -96 32 -12 46 -12 83 -1 24 8 53 22 64 32 20 17 21 17 32 -1 28 -46
52 -70 90 -87 51 -23 80 -23 131 0 l40 18 42 -48 c84 -93 156 -97 233 -13 l42
46 21 -20 c34 -30 62 -42 106 -44 44 -1 70 15 99 64 25 43 52 32 52 -21 0 -53
34 -126 79 -171 l48 -48 -37 -11 c-54 -16 -88 -47 -100 -89 -23 -86 36 -171
135 -193 63 -14 74 -38 25 -56 -59 -22 -95 -127 -67 -195 23 -56 53 -70 145
-69 l79 1 -5 -75 c-6 -89 6 -121 59 -169 53 -49 97 -55 152 -23 l44 26 17 -53
c9 -30 33 -72 54 -96 31 -35 44 -43 84 -47 61 -7 93 13 120 75 11 26 22 49 24
51 2 2 22 -17 45 -42 45 -52 99 -74 142 -58 29 11 65 54 73 88 8 31 17 29 48
-12 15 -19 48 -44 74 -56 40 -18 53 -32 79 -80 l30 -58 -29 -6 c-39 -9 -86
-59 -94 -100 -20 -108 55 -189 171 -184 65 3 74 -3 39 -25 -56 -37 -73 -155
-31 -217 29 -43 82 -79 118 -79 16 0 52 9 81 20 28 11 53 18 55 16 2 -2 -1
-25 -8 -50 -32 -128 38 -236 154 -236 35 0 51 7 85 36 l41 35 12 -46 c34 -134
151 -192 240 -118 35 30 79 114 79 153 0 25 16 59 22 50 2 -3 12 -24 22 -47
22 -51 49 -77 99 -98 71 -30 130 0 174 89 l20 38 21 -27 22 -27 -30 -28 c-25
-23 -30 -36 -30 -73 0 -56 11 -86 45 -123 l27 -29 -34 -8 c-88 -23 -123 -129
-64 -196 25 -28 91 -60 124 -61 21 0 22 -4 22 -75 0 -74 1 -77 39 -118 36 -38
44 -42 88 -42 36 0 58 7 88 28 22 15 43 27 46 27 4 0 12 -21 18 -47 15 -59 69
-113 112 -113 46 0 86 26 115 75 14 25 30 45 35 45 5 0 15 -15 23 -33 43 -105
159 -116 230 -22 l28 36 42 -46 c41 -43 45 -45 98 -45 l56 0 7 -47 c4 -26 13
-60 21 -75 l15 -28 -47 0 c-37 0 -51 -5 -75 -29 -24 -24 -29 -38 -29 -75 0
-40 6 -53 38 -89 32 -34 37 -47 31 -67 -13 -44 -10 -130 6 -160 18 -36 59 -58
119 -66 l44 -6 6 -51 c16 -120 93 -162 224 -122 20 7 22 4 22 -30 0 -62 37
-108 103 -129 28 -9 83 22 126 70 21 24 41 44 43 44 3 0 8 -18 12 -40 8 -51
57 -107 101 -116 43 -8 90 17 118 63 l21 36 12 -52 c7 -32 22 -64 40 -82 27
-29 33 -30 94 -27 l65 3 -3 -30 c-2 -16 -4 -63 -5 -103 -2 -68 -3 -73 -22 -67
-11 4 -41 9 -66 12 -41 5 -48 2 -67 -22 -46 -59 -7 -177 68 -207 24 -10 24
-11 -18 -25 -57 -20 -82 -60 -82 -131 0 -45 4 -58 28 -82 39 -38 106 -49 157
-25 28 14 39 15 48 6 8 -8 9 -14 1 -19 -39 -25 -47 -133 -13 -176 42 -53 124
-72 179 -41 37 21 40 19 40 -25 0 -91 55 -156 125 -147 22 3 50 9 62 12 18 6
25 0 41 -32 31 -61 56 -77 124 -83 l61 -5 33 -125 c39 -144 171 -565 216 -690
43 -120 109 -242 124 -228 3 4 9 30 14 60 5 29 31 142 59 251 28 108 62 257
76 330 35 181 32 176 99 174 46 -1 60 3 82 23 32 30 62 87 72 137 l8 38 59 5
c69 6 128 37 150 80 11 22 23 28 60 33 73 10 104 32 131 91 22 49 28 54 64 60
64 10 140 89 140 146 0 11 8 23 18 27 60 20 107 51 133 86 25 34 29 49 29 102
0 54 4 67 30 100 40 50 55 108 39 147 -12 30 -66 78 -88 78 -6 0 -16 12 -22
28 -22 62 -60 123 -91 145 -15 11 -43 21 -62 21 -24 1 -45 11 -66 31 l-32 30
39 35 c30 27 94 102 108 128 1 1 21 -16 44 -38 35 -33 49 -40 82 -40 69 0 122
39 157 118 l20 44 22 -31 c28 -41 69 -61 121 -61 36 0 48 6 84 43 23 23 44 48
46 56 4 11 11 12 40 1 21 -8 50 -10 71 -6 39 7 128 78 128 102 0 25 23 25 74
-1 127 -64 265 3 299 146 6 22 14 27 52 32 96 14 169 74 180 151 7 43 7 43 62
56 37 8 67 23 92 45 33 30 36 38 36 87 0 41 -6 62 -27 92 l-27 39 24 41 c51
88 49 167 -4 195 -18 10 -20 18 -15 69 5 49 3 61 -16 86 -13 15 -43 37 -68 47
-42 18 -44 21 -38 50 3 18 6 35 6 40 0 4 24 5 53 2 55 -6 117 16 146 51 19 23
35 20 59 -14 27 -36 79 -52 126 -39 19 5 60 33 90 62 l55 52 31 -28 c65 -58
171 -26 221 67 23 45 25 46 72 46 98 0 163 57 174 151 5 48 11 59 50 93 61 54
86 107 81 168 -4 33 -13 57 -28 73 -23 25 -23 26 -7 60 29 60 23 109 -19 155
-36 40 -36 40 -20 74 19 40 20 68 5 83 -8 8 -5 17 12 34 l22 22 13 -44 c30
-102 129 -145 226 -99 25 12 54 30 64 41 20 23 47 25 64 5 16 -20 75 -38 120
-38 45 1 86 20 135 63 l35 31 35 -22 c29 -18 47 -21 90 -18 66 6 113 38 161
114 31 48 38 53 81 60 133 20 214 93 230 209 5 40 11 48 42 65 44 22 96 76
110 112 11 29 -4 89 -34 135 -13 20 -13 24 9 50 35 43 46 68 46 109 0 36 -33
104 -51 104 -5 0 -8 26 -7 59 1 45 -3 65 -20 89 -23 31 -29 62 -13 62 5 0 22
-7 37 -15 68 -35 129 -15 207 68 l57 62 0 -38 c0 -73 42 -107 132 -107 67 0
102 21 159 94 l44 57 10 -33 c16 -53 32 -74 69 -92 46 -22 94 -20 134 4 33 20
92 102 92 128 0 15 1 15 83 -6 51 -13 99 1 145 42 30 26 49 34 95 40 68 7 109
26 155 69 29 28 32 36 32 93 0 60 1 63 34 83 18 12 46 40 62 63 25 36 29 50
27 103 l-2 62 39 17 c74 32 139 143 112 187 -18 28 -15 47 13 83 28 36 46 111
34 143 -7 20 -58 68 -80 75 -9 3 -4 21 15 60 37 76 39 138 6 173 -13 14 -45
33 -71 42 -38 14 -48 23 -53 45 -3 15 -21 45 -40 66 l-36 39 23 21 c16 16 36
22 66 22 55 0 94 21 121 65 12 19 23 35 26 35 2 0 18 -9 36 -20 19 -12 51 -20
75 -20 35 0 50 7 82 36 22 19 47 55 57 80 9 24 21 44 26 44 5 0 26 -9 48 -20
46 -24 119 -26 159 -6 35 19 88 78 106 120 8 17 17 52 20 78 6 43 9 48 43 58
95 30 152 102 152 191 0 42 2 45 44 67 118 63 156 169 100 280 l-26 53 25 37
c32 48 40 84 27 131 -14 55 -45 89 -91 103 -34 10 -39 15 -34 32 14 49 17 125
6 159 -18 53 -53 77 -112 77 -46 0 -49 1 -49 26 0 44 -21 102 -46 125 -26 24
-78 28 -125 9 -35 -15 -41 -10 -57 46 -7 22 -21 49 -33 60 -27 25 -87 23 -132
-5 -47 -29 -58 -27 -100 19 -19 22 -40 40 -46 40 -18 0 -13 26 9 45 11 10 21
16 23 14 2 -2 11 -16 20 -31 9 -14 32 -32 52 -38 50 -17 83 -1 151 73 l55 60
31 -23 c42 -31 96 -36 143 -14 42 19 90 80 100 124 9 40 18 43 48 20 34 -27
63 -25 108 6 42 29 76 77 105 146 19 48 19 48 67 48 56 0 90 16 134 62 41 42
63 96 63 152 0 42 3 47 43 75 74 51 106 121 87 191 l-11 41 46 41 c65 58 88
107 83 180 -4 51 -9 63 -41 96 l-37 38 31 18 c39 23 87 89 95 131 15 80 -45
173 -122 192 l-37 8 -1 102 c-1 94 -3 103 -26 128 -23 25 -30 27 -87 22 l-62
-5 -7 65 c-9 86 -36 127 -88 131 -28 2 -47 -3 -67 -17 -31 -23 -31 -23 -49 34
-33 107 -96 134 -166 73 -35 -31 -38 -32 -48 -14 -6 11 -23 34 -38 51 -16 18
-28 35 -28 37 0 3 24 10 53 17 30 6 65 23 81 38 34 31 65 97 66 138 l0 30 79
-3 c58 -3 87 1 111 13 66 34 88 120 50 195 -27 53 -25 65 6 41 55 -43 176 -14
210 50 8 17 18 55 21 84 5 47 9 55 34 66 36 15 108 85 121 119 5 14 8 53 6 86
l-3 61 50 46 50 45 0 64 c0 63 -3 70 -50 134 -7 10 -6 20 3 32 59 82 67 105
57 158 -4 25 -21 51 -55 84 l-48 46 39 59 c43 66 56 110 42 152 -14 40 -67 73
-119 73 -43 0 -43 1 -34 26 6 14 10 55 10 91 0 61 -2 67 -34 99 -38 38 -66 42
-122 19 -20 -8 -40 -13 -44 -10 -4 2 -10 27 -13 56 -8 62 -35 111 -69 123 -19
7 -38 3 -81 -17 -63 -29 -67 -26 -67 46 0 23 -8 58 -18 77 -32 64 -98 58 -174
-17 l-48 -47 -35 34 c-30 29 -43 35 -80 35 -40 0 -50 -5 -94 -49 -47 -46 -52
-49 -76 -38 -70 32 -157 3 -170 -57 l-6 -28 -44 15 c-39 13 -45 18 -45 43 0
23 7 32 38 48 62 32 102 84 102 133 0 23 -5 56 -12 74 -10 29 -9 36 8 55 10
12 42 32 71 46 74 35 84 69 57 185 -5 21 -2 27 18 33 79 24 121 136 86 232
-11 29 -10 35 10 56 62 66 45 183 -35 253 l-35 31 17 55 c21 66 15 116 -20
155 -20 24 -31 28 -78 28 l-55 0 -7 79 c-6 70 -10 83 -36 109 -25 24 -36 28
-69 25 -39 -3 -40 -3 -45 32 -19 120 -39 165 -81 180 -36 14 -89 -11 -146 -67
-26 -26 -50 -44 -53 -42 -3 3 -9 30 -15 59 -20 104 -69 152 -134 130 -32 -10
-134 -107 -167 -160 l-16 -24 -26 42 c-57 89 -112 93 -199 13 -30 -27 -60 -60
-67 -74 l-13 -25 -49 26 c-44 22 -53 24 -88 14 -21 -7 -51 -22 -66 -34 -30
-23 -64 -90 -65 -125 0 -27 -6 -28 -40 -8 -36 21 -83 18 -114 -6 -15 -12 -28
-20 -30 -18 -1 2 -12 17 -24 32 l-21 29 23 36 c60 98 60 161 1 222 -32 33 -35
39 -25 64 13 34 13 97 1 129 -14 36 -61 76 -103 87 l-37 10 0 63 c0 143 -64
205 -167 162 -44 -18 -51 -14 -60 33 -16 89 -59 127 -136 120 -35 -4 -59 -14
-88 -37 -21 -17 -43 -31 -48 -31 -4 0 -19 25 -31 55 -29 71 -69 105 -122 105
-54 0 -84 -17 -151 -87 l-56 -60 -50 56 c-46 53 -51 56 -94 55 -25 0 -55 -8
-68 -17 -34 -24 -89 -106 -96 -144 -3 -18 -9 -33 -13 -33 -3 0 -28 11 -55 25
-27 14 -63 25 -80 25 -35 0 -111 -32 -139 -58 -25 -22 -54 -79 -62 -122 -6
-33 -9 -35 -50 -37 -24 -1 -58 -9 -75 -18 -35 -18 -84 -81 -102 -132 -9 -25
-17 -33 -33 -31 -18 3 -20 11 -23 98 -3 86 -5 97 -29 122 -15 16 -41 29 -64
33 l-39 7 0 56 c0 117 -40 178 -110 169 -19 -2 -43 -7 -52 -11 -12 -5 -19 -3
-22 5 -22 77 -41 111 -66 124 -37 19 -93 19 -129 1 -30 -16 -101 -90 -101
-106 0 -23 -18 -7 -35 29 -62 138 -187 121 -277 -37 l-30 -53 -44 41 c-36 33
-51 40 -84 40 -23 0 -54 -7 -69 -14 -40 -21 -90 -82 -113 -137 -21 -51 -24
-51 -111 -34 -26 5 -81 -13 -111 -36 -39 -31 -74 -107 -81 -180 -6 -56 -12
-69 -45 -104 -51 -53 -67 -89 -76 -162 -6 -55 -10 -65 -43 -91 -20 -16 -47
-52 -60 -80 l-24 -50 -25 30 c-54 64 -126 69 -201 14 -19 -14 -37 -23 -42 -21
-4 3 -10 24 -14 48 -9 51 -20 74 -53 109 -53 57 -122 44 -183 -33 l-32 -41
-18 34 c-22 42 -80 95 -114 104 -41 10 -92 -14 -140 -68 -24 -27 -50 -67 -56
-89 -7 -21 -17 -39 -23 -39 -6 0 -29 12 -51 25 -51 32 -121 34 -158 5 -35 -27
-64 -93 -72 -162 -3 -32 -9 -58 -13 -58 -4 0 -27 7 -50 15 -54 19 -103 11
-143 -22 -44 -38 -60 -76 -62 -154 l-2 -69 -30 -1 c-58 -1 -97 -22 -119 -64
-27 -52 -34 -197 -12 -275 13 -50 13 -57 -2 -78 -39 -54 -52 -89 -52 -138 0
-65 21 -133 54 -176 l26 -34 -29 -22 c-67 -49 -63 -168 7 -241 20 -21 45 -42
56 -48 16 -9 17 -15 8 -44 -6 -19 -14 -55 -18 -81 -9 -67 -30 -62 -38 10 -9
83 -32 145 -66 177 -24 23 -34 26 -63 21 -19 -4 -40 -13 -47 -21 -20 -24 -27
-18 -40 30 -15 54 -54 91 -108 100 -32 5 -38 10 -40 33 -1 14 -11 44 -22 66
-22 46 -21 51 19 59 35 7 96 59 117 98 37 73 1 173 -83 229 -59 40 -65 55 -25
63 41 9 108 63 127 103 27 57 17 140 -22 193 l-31 43 20 45 c58 132 15 271
-93 297 -24 5 -27 12 -34 63 -13 102 -61 164 -141 181 -34 7 -38 12 -49 55
-13 50 -52 106 -98 140 -18 14 -43 20 -82 21 l-57 1 -32 55 c-61 103 -141 128
-228 70 l-45 -30 -37 35 c-78 73 -159 67 -243 -21 l-51 -54 -48 21 c-99 44
-184 10 -243 -100 -27 -52 -37 -62 -72 -73 -32 -9 -45 -9 -57 0 -10 7 -30 19
-46 26 -29 14 -30 15 -30 92 -1 89 -22 132 -76 156 -30 13 -30 13 -30 98 0
134 -43 190 -147 190 -38 0 -43 3 -49 28 -27 123 -60 166 -127 167 -23 0 -52
-4 -64 -8 -20 -7 -25 -3 -39 32 -9 23 -32 55 -52 72 -32 28 -40 31 -89 27 -44
-4 -60 -11 -87 -37 l-33 -32 -22 34 c-12 19 -41 53 -66 76 -50 46 -86 52 -144
24z m109 -99 c26 -18 50 -43 50 -54 0 -4 -21 -3 -47 1 -27 4 -67 8 -90 8 -50
1 -54 11 -15 40 33 25 69 26 102 5z m-271 -28 c18 -10 31 -19 29 -21 -1 -2
-43 -10 -93 -20 -49 -9 -100 -19 -112 -22 -32 -7 -30 17 6 51 49 47 95 50 170
12z m564 -34 c42 -28 79 -83 66 -98 -8 -10 -19 -8 -52 10 -24 12 -62 30 -85
39 -23 9 -42 21 -42 26 0 9 58 40 75 41 6 0 22 -8 38 -18z m-942 -62 c10 -6
19 -14 19 -19 0 -9 -156 -111 -170 -111 -22 0 36 123 63 134 22 8 68 6 88 -4z
m1167 -77 c31 -44 53 -120 39 -132 -9 -7 -32 9 -80 56 -37 36 -67 69 -67 74 0
13 33 28 62 29 18 0 33 -9 46 -27z m-463 -55 c81 -16 226 -92 289 -149 142
-129 247 -342 286 -578 34 -202 41 -282 40 -451 -2 -206 -11 -306 -28 -302
-98 20 -300 46 -427 55 l-160 12 4 150 c3 167 -9 247 -54 335 -36 72 -47 64
-40 -27 4 -43 -1 -160 -9 -261 -9 -101 -16 -185 -16 -188 0 -3 -30 -4 -66 -2
l-67 3 -17 69 c-22 85 -74 189 -137 278 -79 111 -79 104 -10 -132 25 -85 49
-171 52 -191 l7 -37 -109 -6 c-136 -9 -244 -20 -450 -48 -89 -12 -165 -19
-168 -16 -3 3 -10 68 -15 144 -32 496 -33 503 -21 580 15 104 53 212 109 314
36 64 73 111 152 191 158 159 272 217 499 254 162 25 246 26 356 3z m5790 -24
c33 -13 74 -131 60 -174 -6 -19 -9 -18 -62 10 -31 17 -73 35 -94 42 -60 17
-46 68 29 108 42 22 44 22 67 14z m-288 -36 c18 -18 33 -37 33 -44 0 -8 -31
-13 -92 -16 -51 -3 -95 -4 -97 -2 -9 8 88 94 105 94 10 0 33 -14 51 -32z
m-6474 -27 c7 -7 -3 -25 -34 -59 -24 -26 -55 -61 -68 -77 -21 -26 -25 -27 -31
-11 -11 32 5 124 25 146 16 18 28 21 59 17 21 -3 43 -10 49 -16z m8378 -12
c16 -17 29 -35 29 -41 0 -8 -158 -1 -168 8 -7 5 81 64 95 64 8 0 28 -14 44
-31z m-342 -30 c18 -11 31 -22 29 -25 -9 -8 -150 -45 -155 -40 -8 8 30 57 56
71 33 18 30 18 70 -6z m-6409 -21 c27 -45 29 -162 3 -173 -10 -3 -19 -2 -21 4
-2 5 -25 46 -53 91 -27 45 -49 83 -49 86 0 8 44 23 73 23 20 1 32 -7 47 -31z
m4547 -5 c2 -5 -11 -16 -29 -23 -18 -7 -59 -26 -90 -41 -31 -15 -59 -25 -62
-22 -10 10 40 72 78 97 35 22 42 24 69 13 17 -7 32 -18 34 -24z m810 -43 c15
-45 17 -160 2 -160 -6 0 -31 20 -56 45 -24 25 -55 53 -69 61 -13 9 -24 19 -24
23 0 4 19 21 42 39 56 43 88 40 105 -8z m1705 -15 c12 -24 19 -48 15 -51 -6
-7 -94 35 -125 59 -18 14 15 36 56 37 28 0 35 -5 54 -45z m-952 -55 c0 -5 -4
-10 -9 -10 -4 0 -39 -23 -77 -50 -71 -52 -85 -51 -64 4 6 17 25 34 52 46 46
21 98 26 98 10z m-1145 -35 c32 -9 81 -28 109 -43 72 -38 195 -163 241 -245
46 -83 124 -285 125 -322 0 -6 -86 -20 -197 -33 -177 -21 -287 -37 -378 -57
l-30 -7 -1 119 c-1 105 -17 213 -30 200 -9 -9 -44 -161 -55 -244 -7 -45 -15
-86 -18 -92 -9 -13 -100 -42 -105 -33 -2 4 -7 40 -10 81 -11 115 -65 262 -81
220 -2 -8 -6 -86 -7 -173 -3 -129 -6 -160 -18 -167 -36 -20 -502 -200 -506
-196 -3 2 5 58 16 123 60 336 131 507 277 660 51 54 160 130 228 159 138 59
324 80 440 50z m2308 -3 c17 -19 36 -89 37 -135 0 -34 -28 -48 -43 -21 -6 10
-35 45 -65 76 l-55 58 44 20 c54 24 62 24 82 2z m-3020 -9 c5 -9 -146 -173
-158 -173 -17 0 5 83 30 116 36 47 114 81 128 57z m2516 -19 c78 -20 196 -80
259 -131 58 -47 120 -127 160 -205 30 -60 73 -212 87 -308 3 -25 8 -54 10 -65
15 -93 25 -328 15 -345 -6 -9 -39 1 -131 40 -152 64 -307 138 -314 150 -3 4
13 34 34 66 21 33 42 70 46 84 4 14 12 30 17 37 5 6 5 14 0 17 -5 3 -47 -33
-95 -79 l-86 -84 -51 21 c-27 11 -50 24 -50 29 0 5 11 42 25 84 29 86 58 227
53 258 -3 20 -6 18 -26 -13 -12 -19 -42 -87 -67 -151 -25 -64 -51 -123 -58
-132 -11 -15 -20 -13 -100 15 -101 35 -93 16 -68 159 7 36 11 99 9 140 l-3 74
-17 -31 c-9 -17 -33 -85 -53 -150 -20 -66 -40 -123 -44 -127 -5 -5 -39 1 -77
12 -126 37 -228 52 -382 58 -149 6 -152 7 -146 27 38 118 301 383 464 466 167
85 433 123 589 84z m-8589 -19 c0 -3 -8 -22 -19 -43 -10 -20 -26 -61 -35 -89
-25 -77 -39 -67 -34 23 3 65 7 79 27 95 21 17 61 26 61 14z m-1213 -22 c28
-25 93 -110 93 -120 0 -5 -39 -1 -87 9 -49 10 -98 18 -110 18 -34 0 -28 17 21
66 49 49 56 51 83 27z m-237 -38 c57 -51 59 -49 -65 -59 -38 -4 -80 -9 -92
-12 -37 -10 -29 29 15 76 52 53 77 53 142 -5z m3373 -6 c29 -36 17 -149 -17
-149 -12 0 -66 139 -66 172 0 18 63 0 83 -23z m5376 22 c17 -11 28 -123 16
-168 -6 -26 -9 -22 -51 57 -24 47 -44 88 -44 91 0 7 40 27 55 28 6 0 17 -3 24
-8z m-4513 -38 l28 -18 -64 -7 c-36 -4 -82 -9 -102 -11 -34 -5 -37 -3 -28 13
14 26 71 51 107 46 17 -2 44 -13 59 -23z m246 -12 c34 -28 81 -98 73 -111 -4
-7 -24 -1 -58 19 -29 16 -71 35 -95 42 -48 14 -53 35 -12 56 35 18 63 16 92
-6z m-3954 -8 c32 -28 82 -104 82 -125 0 -24 -19 -23 -88 6 -31 13 -74 29 -94
36 -21 6 -38 15 -38 20 0 5 15 25 34 44 37 40 72 46 104 19z m8612 2 c0 -3
-29 -39 -64 -79 -35 -40 -72 -85 -81 -100 -41 -63 -48 3 -9 82 20 41 36 58 73
77 43 23 81 32 81 20z m-9491 -29 c59 -31 57 -41 -11 -76 -35 -18 -69 -37 -75
-42 -10 -8 -13 -4 -13 15 0 35 26 94 47 106 23 13 19 13 52 -3z m4280 -22 c5
-5 9 -3 -64 -38 -33 -17 -73 -38 -88 -49 -43 -29 -55 -8 -20 34 45 55 78 71
133 62 19 -2 37 -7 39 -9z m6725 -34 c71 -27 80 -170 11 -170 -7 0 -18 19 -25
43 -7 23 -21 59 -31 80 -28 54 -13 69 45 47z m-5947 -70 c18 -10 48 -41 67
-67 28 -38 32 -50 22 -65 -17 -28 4 -52 52 -59 53 -7 87 -39 108 -102 16 -49
16 -50 -6 -67 -14 -11 -21 -25 -18 -40 2 -20 11 -26 48 -33 89 -16 91 -16 110
-60 22 -48 26 -126 8 -149 -16 -20 -108 -33 -109 -15 -3 47 -45 179 -85 266
-49 106 -138 236 -216 314 -38 37 -68 72 -68 77 0 8 19 16 45 19 6 0 24 -8 42
-19z m-3922 -23 c30 -30 61 -105 53 -127 -2 -4 -36 17 -76 46 l-72 54 15 30
c20 39 39 38 80 -3z m6493 -35 c-24 -55 -45 -70 -33 -25 7 28 44 87 51 80 2
-2 -6 -27 -18 -55z m-2973 33 c100 -26 172 -72 275 -175 95 -95 142 -165 196
-295 65 -158 95 -380 75 -571 -14 -137 -88 -427 -157 -611 l-15 -42 -122 123
c-67 68 -139 137 -161 154 l-38 30 26 94 c40 136 60 334 34 326 -6 -2 -40 -83
-74 -179 -34 -96 -66 -173 -71 -172 -14 3 -117 73 -124 85 -4 6 -2 27 4 47 18
62 14 287 -7 356 -21 69 -43 115 -55 115 -4 0 -14 -101 -21 -225 -7 -124 -16
-228 -20 -230 -4 -3 -61 20 -126 51 -66 31 -182 83 -259 116 -77 33 -143 62
-147 64 -4 3 -2 18 4 36 8 22 8 48 -1 93 -10 56 -9 67 10 110 23 53 23 135 -1
192 -13 30 -12 35 8 60 12 16 38 62 59 103 84 169 278 306 488 345 95 18 150
18 220 0z m4541 -20 c13 -21 16 -39 10 -95 -11 -128 -24 -131 -53 -12 -12 48
-25 97 -29 110 -6 19 -3 22 25 22 22 0 35 -7 47 -25z m-5368 -7 c18 -18 14
-58 -13 -115 -20 -44 -29 -53 -49 -53 -18 0 -27 6 -31 23 -7 33 -25 139 -25
149 0 13 105 9 118 -4z m171 -25 c-18 -20 -41 -44 -50 -53 -9 -9 -33 -45 -54
-78 -21 -34 -41 -62 -46 -62 -19 0 -13 26 13 54 15 17 38 55 50 84 17 40 31
58 58 72 56 30 68 24 29 -17z m-3423 -4 c266 -49 564 -241 726 -466 86 -120
188 -336 188 -398 0 -7 -72 -30 -170 -54 -94 -23 -209 -56 -257 -72 -47 -16
-89 -26 -94 -23 -5 3 -25 37 -45 77 -34 69 -66 120 -115 186 -25 34 -53 42
-46 14 3 -10 8 -39 12 -65 3 -26 22 -93 41 -150 19 -56 34 -105 34 -109 0 -10
-110 -60 -120 -54 -4 3 -20 28 -35 57 -71 137 -218 328 -252 328 -13 0 -15
-11 -10 -66 4 -57 16 -89 76 -211 39 -79 71 -152 71 -161 0 -12 -30 -31 -97
-62 -122 -56 -375 -201 -511 -292 -57 -38 -109 -67 -115 -65 -13 5 -81 166
-127 302 -62 182 -87 438 -60 614 30 190 153 426 274 525 174 143 383 191 632
145z m-838 -28 c11 -6 2 -25 -38 -80 -29 -39 -55 -71 -57 -71 -3 0 -3 27 -1
60 6 83 48 122 96 91z m1941 -128 l-1 -128 -19 42 c-28 62 -36 156 -15 188 30
46 36 29 35 -102z m5083 27 c32 -32 58 -64 58 -69 0 -7 -17 -8 -42 -5 -38 5
-161 -13 -225 -32 -33 -9 -30 21 6 77 37 59 76 89 114 89 25 0 43 -12 89 -60z
m5420 -5 c35 -64 37 -88 6 -76 -13 5 -56 14 -95 21 -40 7 -73 17 -73 21 0 4
21 26 47 49 60 52 80 50 115 -15z m-1078 1 c19 -39 19 -40 0 -95 -21 -62 -44
-73 -55 -26 -13 53 -25 155 -20 161 3 3 17 4 31 2 18 -2 30 -14 44 -42z
m-4099 2 c14 -21 55 -138 55 -159 0 -5 -26 4 -57 19 -32 16 -75 35 -96 42 -32
10 -37 15 -31 33 7 23 29 54 53 75 23 19 58 14 76 -10z m549 -17 c3 -4 -2 -47
-11 -95 -16 -84 -18 -87 -43 -84 -21 3 -25 9 -28 42 -4 48 2 71 28 114 19 31
43 41 54 23z m-6149 -25 c35 -35 60 -145 36 -160 -4 -3 -28 18 -52 46 -24 29
-55 65 -67 80 l-24 28 34 15 c44 19 45 19 73 -9z m10429 5 c17 -19 16 -20 -39
-31 -48 -10 -79 -8 -64 3 2 2 17 13 33 25 35 27 48 27 70 3z m614 -8 c16 -31
46 -162 39 -169 -3 -4 -24 4 -45 18 -21 14 -62 38 -92 53 l-54 27 29 25 c42
35 88 63 102 63 7 0 16 -8 21 -17z m-6018 -53 c22 -11 40 -24 40 -28 0 -5 -24
-18 -54 -31 -30 -12 -79 -37 -110 -56 -31 -18 -58 -30 -60 -27 -2 4 5 32 15
62 31 95 87 122 169 80z m-2651 -22 c17 -27 26 -138 13 -157 -6 -8 -17 -11
-26 -8 -13 5 -16 23 -16 97 0 49 3 90 8 90 4 0 13 -10 21 -22z m3504 -6 c22
-24 47 -86 47 -116 0 -20 -21 -81 -37 -105 -1 -2 -28 20 -60 49 -32 29 -75 64
-96 78 l-38 25 23 24 c52 56 131 78 161 45z m4273 -8 c3 -10 -113 -70 -121
-62 -8 8 36 50 69 64 33 14 48 14 52 -2z m-11998 -76 c-7 -28 -60 -194 -68
-213 -7 -18 -9 -17 -20 10 -7 17 -13 61 -13 98 -2 64 0 70 26 93 30 25 81 33
75 12z m12599 -40 c95 -34 217 -106 271 -161 68 -69 112 -156 144 -282 31
-124 17 -320 -32 -430 -5 -11 -20 -46 -34 -78 -14 -32 -26 -60 -26 -63 0 -24
-198 -391 -255 -474 -17 -25 -46 -74 -64 -110 -19 -36 -37 -69 -41 -73 -6 -7
-124 179 -139 218 -2 6 -26 47 -53 93 l-49 82 34 58 c48 78 208 394 203 399
-9 10 -126 -134 -202 -249 -47 -71 -86 -128 -88 -128 -2 0 -29 31 -60 70 l-57
70 25 47 c58 116 150 432 131 451 -7 7 -70 -100 -90 -153 -29 -80 -123 -275
-132 -275 -5 0 -64 65 -132 144 -118 138 -221 240 -331 328 -27 22 -50 42 -50
44 0 9 35 60 86 125 50 63 167 173 229 216 210 145 514 200 712 131z m-1067
-13 c9 -26 9 -44 0 -70 -18 -55 -30 -41 -30 35 0 76 12 90 30 35z m1530 0 c5
-13 12 -48 15 -77 l6 -53 -18 25 c-10 14 -33 42 -52 62 -28 32 -31 41 -21 53
20 24 59 19 70 -10z m-5688 -33 c86 -44 203 -133 323 -246 83 -78 93 -60 -100
-174 -72 -42 -173 -106 -225 -142 -52 -36 -97 -64 -100 -63 -3 2 -8 36 -11 77
-6 69 -31 136 -52 136 -5 0 -7 -61 -6 -136 l3 -137 -28 -23 c-37 -33 -48 -30
-69 17 -41 87 -163 239 -193 239 -7 0 19 -66 61 -152 40 -84 76 -163 79 -174
5 -17 -6 -34 -54 -80 -34 -33 -68 -63 -76 -67 -14 -8 -55 48 -98 130 -8 17
-21 35 -27 38 -23 15 18 -140 50 -189 l20 -30 -78 -82 c-82 -87 -226 -259
-287 -344 -20 -28 -39 -50 -44 -50 -9 0 -17 39 -25 120 -3 30 -11 100 -18 155
-18 154 -15 442 7 550 53 269 206 465 463 594 118 60 208 82 315 78 80 -3 95
-7 170 -45z m-5221 -59 c25 -189 25 -190 -17 -154 -20 16 -22 26 -19 114 5
139 20 157 36 40z m9599 69 c0 -9 -78 -92 -86 -92 -11 0 -1 29 21 63 23 33 65
52 65 29z m-5156 -23 c6 -5 -20 -40 -64 -86 -41 -43 -78 -82 -82 -88 -16 -18
-28 18 -23 65 6 54 29 89 75 112 33 17 74 16 94 -3z m-4614 -19 c20 -20 66
-157 56 -167 -3 -3 -25 34 -48 83 -23 49 -44 92 -46 97 -7 15 19 6 38 -13z
m5890 -10 c36 -19 70 -201 38 -199 -7 0 -39 31 -70 69 -54 64 -57 70 -47 98 9
27 21 36 52 41 5 0 17 -4 27 -9z m-3616 -77 c10 -50 -15 -112 -53 -125 l-23
-8 6 82 c4 47 12 85 19 90 24 16 42 2 51 -39z m8964 -68 c10 -31 11 -49 2 -77
-11 -40 -47 -69 -55 -46 -2 7 -13 40 -25 73 -24 72 -25 82 -2 88 46 13 67 3
80 -38z m-7339 -91 c31 -40 37 -87 14 -131 -18 -35 -68 -82 -76 -72 -3 2 -7
61 -10 132 l-7 127 29 -15 c16 -8 39 -26 50 -41z m521 31 c0 -3 -20 -44 -44
-92 -25 -49 -50 -110 -57 -137 -18 -74 -33 -33 -27 78 5 99 17 132 51 146 24
9 77 13 77 5z m-7107 -26 c32 -16 137 -121 137 -136 0 -16 7 -16 -65 6 -33 10
-92 22 -132 26 l-72 7 14 36 c27 64 69 86 118 61z m-340 -20 c47 -24 117 -73
117 -81 0 -4 -13 -8 -28 -8 -28 0 -158 -36 -219 -61 -18 -7 -35 -10 -39 -6 -4
4 8 36 25 72 42 85 89 112 144 84z m3141 -47 c7 -15 17 -37 20 -49 6 -20 4
-23 -18 -23 -18 0 -26 5 -26 18 0 9 -3 35 -7 56 -7 44 8 43 31 -2z m-2179
-239 c8 -35 -18 -29 -55 13 -37 43 -50 73 -50 120 0 44 21 86 57 112 l28 20 7
-121 c4 -66 9 -131 13 -144z m4310 231 c3 -13 7 -35 10 -48 7 -32 -5 -38 -45
-25 -29 10 -31 15 -26 42 3 16 6 37 6 47 0 28 49 13 55 -16z m-4589 -51 c43
-31 55 -45 59 -73 4 -19 13 -53 20 -74 19 -50 12 -56 -23 -24 -36 35 -150 107
-179 114 -13 4 -23 12 -23 19 0 22 51 75 72 75 11 0 44 -17 74 -37z m13614 -1
c36 -37 55 -97 41 -133 -7 -21 -18 -28 -48 -31 -21 -3 -39 -5 -39 -4 -1 1 -5
45 -9 99 -6 87 -5 97 10 97 9 0 29 -13 45 -28z m-14640 -192 c-29 -28 -55 -49
-57 -47 -6 7 17 61 34 79 9 10 29 18 46 18 l29 0 -52 -50z m744 24 c98 -24
217 -89 318 -173 91 -76 178 -169 178 -190 0 -19 69 -88 100 -101 17 -7 30
-15 30 -18 0 -3 -10 -26 -22 -50 -32 -68 -30 -183 6 -256 l27 -55 -85 -81
c-46 -45 -88 -80 -93 -78 -4 2 -19 39 -34 83 -29 90 -45 125 -59 125 -6 0 -6
-9 -1 -22 5 -13 14 -63 20 -111 7 -48 16 -98 21 -111 7 -20 1 -31 -46 -77 -29
-29 -55 -51 -57 -48 -2 2 -21 33 -42 67 -21 35 -60 92 -87 125 -61 77 -209
230 -215 223 -3 -3 49 -89 115 -193 111 -175 162 -269 162 -298 0 -6 -18 -31
-39 -55 l-40 -44 -53 36 c-68 46 -198 111 -206 103 -7 -7 106 -119 171 -170
l38 -30 -70 -93 c-39 -51 -98 -138 -132 -192 -34 -55 -65 -100 -69 -100 -4 0
-23 24 -42 53 -53 78 -126 152 -303 310 -170 152 -214 202 -270 309 -118 224
-103 573 35 809 84 142 175 221 320 279 125 50 286 59 424 24z m6477 -66 c48
-57 65 -116 43 -159 -16 -33 -89 -99 -109 -99 -22 0 -19 37 10 146 14 52 25
103 25 114 0 26 7 25 31 -2z m7414 -37 c33 -64 16 -155 -31 -167 -40 -10 -57
2 -51 39 5 34 27 143 33 166 5 17 30 -2 49 -38z m-6990 -111 c-5 -53 -10 -69
-16 -55 -12 31 -10 120 3 152 l12 28 4 -25 c2 -13 1 -58 -3 -100z m-6386 71
c13 -10 21 -23 17 -30 -11 -18 -23 -13 -46 19 -25 35 -9 41 29 11z m139 -250
c-13 -5 -57 38 -75 73 -15 29 -13 102 3 128 4 6 24 -36 44 -93 20 -57 33 -106
28 -108z m-1607 46 c-10 -23 -26 -75 -36 -114 -18 -78 -30 -90 -42 -45 -22 80
7 175 59 199 35 16 39 7 19 -40z m14754 -51 c9 -29 13 -60 10 -68 -4 -9 -24
-23 -46 -33 -25 -12 -39 -25 -39 -37 0 -21 -16 -24 -35 -4 -11 11 -11 18 4 43
10 16 22 40 26 54 19 58 46 110 55 104 5 -3 17 -30 25 -59z m-7407 -11 c20
-43 14 -91 -14 -124 -27 -33 -43 -38 -61 -20 -8 8 -5 29 13 78 14 36 27 72 29
79 7 19 21 14 33 -13z m517 -77 c3 -29 9 -73 12 -97 7 -53 -9 -49 -33 7 -17
41 -21 86 -10 120 12 37 24 25 31 -30z m3292 -125 c23 -49 68 -167 101 -263
33 -96 65 -188 71 -204 24 -62 77 -343 80 -428 1 -10 6 -18 12 -18 6 0 8 11 5
28 -4 15 -8 52 -10 82 -10 125 -19 189 -38 270 -29 125 -125 422 -170 524 -21
49 -38 91 -38 93 0 2 19 3 42 1 43 -3 43 -4 89 -86 79 -142 215 -503 257 -682
15 -65 41 -188 48 -234 3 -21 7 -46 9 -55 1 -9 6 -46 10 -83 4 -38 11 -68 16
-68 13 0 24 89 23 200 0 99 -12 279 -19 290 -2 3 -6 26 -10 50 -14 93 -137
441 -200 564 -25 49 -44 91 -42 92 2 2 29 -1 60 -7 53 -11 57 -14 71 -53 8
-22 41 -117 74 -211 33 -93 73 -208 89 -255 17 -47 37 -107 46 -135 18 -56 52
-220 62 -305 4 -30 11 -62 16 -70 14 -24 10 52 -10 183 -9 65 -14 120 -11 122
7 4 90 -323 126 -495 31 -155 34 -161 44 -135 12 31 -15 274 -66 595 -17 109
-107 405 -186 613 -17 43 -28 80 -26 83 7 6 126 -36 136 -49 5 -7 20 -46 32
-87 12 -41 53 -169 91 -285 37 -115 71 -226 75 -245 4 -19 8 -37 9 -40 1 -3 5
-25 9 -50 5 -25 14 -56 22 -70 11 -21 57 -202 71 -280 2 -14 12 -68 23 -120
19 -100 35 -217 32 -237 -3 -16 15 -26 23 -13 9 14 10 291 1 365 -9 81 -24
170 -48 290 -11 55 -22 114 -25 130 -2 17 -16 73 -30 125 -14 52 -27 104 -30
115 -9 35 -72 248 -89 298 -9 26 -14 50 -11 53 6 6 198 -75 213 -90 23 -23 97
-369 109 -511 8 -96 15 -165 25 -260 5 -44 12 -159 15 -255 3 -96 8 -247 11
-335 6 -145 6 -238 1 -334 -1 -19 3 -36 9 -38 13 -4 48 127 65 246 20 139 16
799 -6 863 -2 7 -6 51 -9 98 -3 47 -10 110 -15 140 -11 63 -58 270 -67 294
-15 39 69 -1 91 -44 31 -60 76 -268 99 -460 35 -289 36 -301 36 -676 1 -365
-15 -637 -46 -816 -4 -23 -3 -38 4 -38 10 0 73 220 92 320 49 267 55 354 54
725 -1 197 -6 304 -18 395 -10 69 -20 143 -22 165 -9 69 -34 181 -54 241 -32
92 -30 93 65 24 54 -39 72 -58 77 -83 6 -27 16 -138 43 -442 17 -198 23 -807
11 -1070 -16 -367 -19 -396 -42 -544 -8 -51 -13 -95 -11 -98 11 -11 40 58 71
169 38 140 51 207 65 363 6 61 14 137 17 170 13 124 12 867 -1 980 -7 61 -18
157 -24 215 -6 58 -14 122 -17 143 -8 54 10 43 112 -71 111 -124 114 -128 125
-204 9 -62 13 -519 5 -568 -2 -14 -7 -81 -11 -150 -3 -69 -10 -152 -15 -185
-5 -33 -11 -76 -14 -95 -34 -233 -74 -462 -92 -530 -14 -53 -34 -146 -74 -350
-20 -100 -29 -133 -63 -240 -47 -145 -22 -134 53 23 109 227 207 590 271 1007
10 69 21 139 24 155 25 152 38 625 21 789 -7 66 -7 69 10 55 10 -8 51 -59 92
-114 l74 -100 -6 -200 c-4 -110 -9 -236 -12 -280 -11 -151 -90 -612 -125 -730
-11 -39 -27 -95 -34 -125 -32 -131 -86 -333 -115 -430 -18 -58 -36 -121 -41
-140 -6 -19 -14 -44 -19 -55 -5 -11 -18 -54 -30 -95 -12 -41 -34 -114 -50
-162 -16 -49 -25 -88 -20 -88 25 0 157 278 256 540 54 143 203 689 224 822 20
124 39 256 45 303 3 28 7 59 9 70 3 11 5 107 5 213 1 105 5 192 10 192 11 0
109 -219 151 -337 l33 -93 -22 -87 c-41 -172 -114 -420 -156 -538 -127 -355
-176 -487 -185 -503 -5 -9 -28 -64 -51 -122 -23 -57 -45 -111 -50 -120 -5 -8
-38 -89 -75 -180 -68 -171 -84 -207 -139 -325 -18 -38 -36 -81 -40 -95 -4 -14
-20 -52 -35 -85 -30 -62 -46 -115 -37 -115 12 0 125 179 204 320 77 139 133
250 169 335 9 22 31 74 49 115 94 219 146 344 174 424 17 49 38 103 45 120 8
17 31 81 51 141 21 61 41 118 46 127 9 17 29 90 70 252 21 85 33 114 42 99 10
-15 38 -223 44 -324 6 -106 9 -97 -74 -329 -53 -148 -112 -291 -183 -445 -69
-148 -242 -500 -248 -505 -4 -3 -28 -48 -54 -100 -95 -189 -225 -426 -289
-524 -21 -33 -39 -63 -39 -68 0 -9 30 1 30 11 0 3 19 26 41 51 38 42 56 65
156 200 40 55 223 345 223 355 0 2 17 33 38 67 55 91 163 300 202 393 19 44
39 87 45 95 7 8 24 47 39 85 15 39 31 75 35 80 5 6 21 46 36 90 16 44 33 85
38 90 6 6 7 -36 4 -115 -5 -136 2 -112 -107 -345 -23 -49 -46 -99 -51 -110
-25 -57 -133 -250 -150 -268 -10 -12 -19 -24 -19 -29 0 -4 -18 -37 -40 -73
-22 -36 -40 -69 -40 -74 0 -5 -4 -11 -9 -13 -4 -1 -23 -30 -41 -63 -51 -94
-545 -834 -605 -907 -8 -10 -10 -20 -5 -23 14 -9 170 145 279 274 187 223 462
629 587 866 15 28 30 52 34 55 4 3 29 46 55 95 26 50 50 92 53 95 2 3 2 -22
-2 -54 -5 -45 -24 -94 -79 -205 -92 -183 -171 -325 -208 -372 -16 -20 -29 -42
-29 -48 0 -6 -4 -11 -8 -11 -5 0 -14 -12 -21 -26 -10 -22 -66 -100 -82 -114
-3 -3 -20 -26 -38 -53 -67 -99 -232 -296 -402 -483 -36 -39 -83 -94 -105 -120
-21 -27 -48 -58 -59 -69 -11 -11 -42 -47 -70 -80 -27 -33 -64 -76 -81 -95 -18
-19 -61 -69 -96 -110 -35 -41 -67 -80 -73 -86 -59 -68 -91 -122 -66 -112 10 4
86 69 251 217 110 99 247 235 360 358 29 32 100 108 158 168 160 167 320 372
441 564 25 39 47 69 49 66 2 -2 -5 -35 -17 -73 -20 -65 -94 -183 -188 -298
-17 -22 -55 -70 -84 -109 -29 -38 -55 -72 -59 -75 -3 -3 -24 -27 -45 -55 -22
-27 -59 -70 -81 -95 -23 -25 -70 -79 -104 -120 -34 -41 -65 -77 -69 -80 -3 -3
-31 -34 -61 -69 -30 -36 -72 -83 -92 -105 -33 -34 -46 -56 -34 -56 10 0 234
217 386 375 127 132 223 239 272 303 18 23 34 40 36 38 8 -8 -50 -152 -79
-196 -49 -77 -507 -520 -820 -795 -89 -79 -215 -190 -225 -200 -26 -24 -141
-126 -169 -148 -48 -40 -22 -42 37 -3 170 114 545 396 608 457 9 8 26 22 38
30 12 9 43 35 70 60 26 24 86 78 131 119 46 41 115 106 154 143 38 37 72 65
75 62 9 -9 -39 -88 -77 -126 -63 -63 -191 -178 -264 -236 -39 -32 -78 -64 -87
-73 -19 -19 -199 -165 -254 -206 -22 -17 -47 -38 -55 -47 -7 -10 -18 -17 -23
-17 -5 0 -41 -26 -80 -57 -39 -32 -104 -83 -143 -113 -40 -30 -110 -84 -154
-120 -45 -36 -94 -74 -109 -85 -15 -11 -53 -39 -84 -63 -56 -41 -83 -81 -34
-48 14 8 40 24 59 35 29 16 168 113 515 357 121 85 342 255 452 348 52 44 103
86 113 94 11 10 17 11 17 3 0 -18 -255 -268 -365 -357 -124 -102 -154 -125
-270 -209 -54 -38 -136 -100 -184 -136 -100 -77 -212 -156 -331 -236 -115 -77
-215 -156 -203 -160 6 -2 70 30 143 72 72 42 139 79 148 83 31 11 272 162 368
230 242 170 324 230 384 282 36 30 78 67 94 80 16 14 52 46 80 72 79 73 74 57
-31 -105 -62 -95 -187 -228 -252 -268 -16 -10 -32 -22 -35 -28 -7 -10 -172
-131 -180 -131 -2 0 -41 -25 -87 -56 -101 -69 -285 -182 -365 -225 -83 -44
-194 -108 -226 -130 -15 -11 -30 -19 -33 -19 -4 0 -59 -31 -123 -68 -64 -37
-135 -77 -157 -89 -112 -59 -195 -110 -195 -119 0 -14 117 26 305 103 106 44
514 242 538 261 7 5 39 24 72 42 83 45 92 50 155 91 30 19 71 44 90 55 19 10
43 25 53 33 9 8 20 12 23 8 3 -3 -4 -14 -16 -24 -13 -10 -52 -43 -89 -73 -154
-130 -277 -215 -491 -341 -63 -37 -146 -87 -184 -111 -38 -24 -76 -46 -85 -51
-9 -4 -38 -20 -66 -36 -27 -15 -99 -54 -158 -85 -60 -31 -151 -82 -203 -112
-52 -29 -97 -54 -101 -54 -3 0 -31 -15 -62 -34 -31 -18 -123 -68 -206 -111
-276 -143 -309 -162 -313 -173 -4 -14 32 -4 128 37 41 18 111 45 155 61 103
36 149 56 395 172 133 63 383 188 447 223 26 15 86 48 132 72 46 25 113 63
149 85 127 78 83 26 -152 -180 -54 -48 -108 -95 -120 -104 -31 -24 -167 -91
-1006 -500 -158 -77 -192 -94 -415 -208 -250 -127 -295 -153 -295 -168 0 -7 4
-12 8 -10 16 6 208 80 242 93 77 29 369 150 435 180 39 18 115 52 170 75 129
55 225 98 408 185 43 20 80 35 83 32 7 -6 -83 -79 -133 -108 -23 -13 -79 -46
-125 -73 -46 -27 -114 -66 -153 -86 -220 -115 -316 -166 -368 -196 -32 -19
-60 -34 -63 -34 -3 0 -166 -79 -362 -176 -196 -97 -377 -185 -402 -196 -84
-38 -110 -53 -110 -60 0 -11 1 -11 119 23 176 51 325 106 423 155 26 13 52 24
58 24 6 0 35 11 63 24 29 13 86 39 127 57 41 19 152 73 247 121 95 48 173 83
173 78 0 -4 -15 -20 -32 -35 -56 -45 -61 -49 -144 -121 -64 -56 -97 -76 -165
-101 -46 -17 -140 -53 -209 -79 -69 -26 -152 -57 -186 -69 -33 -13 -101 -41
-150 -63 -49 -22 -147 -63 -219 -92 -71 -29 -209 -90 -305 -135 -333 -157
-372 -175 -381 -175 -5 0 -9 -4 -9 -10 0 -13 9 -13 77 5 32 9 70 18 84 20 14
2 46 10 70 18 263 92 437 156 704 262 302 120 343 135 356 135 16 0 -230 -236
-275 -264 -17 -11 -121 -65 -231 -121 -246 -125 -388 -201 -437 -232 -21 -12
-40 -23 -43 -23 -15 0 -318 -178 -438 -258 -65 -43 -83 -59 -75 -67 3 -4 224
92 413 178 39 17 158 76 265 130 182 92 290 142 290 133 0 -2 -17 -21 -37 -43
-21 -21 -74 -76 -117 -121 -47 -49 -109 -100 -153 -127 -40 -25 -76 -45 -79
-45 -3 0 -36 -17 -72 -39 -37 -21 -128 -70 -202 -108 -174 -91 -282 -154 -457
-270 -126 -83 -162 -113 -135 -113 9 0 200 74 229 88 195 99 536 262 540 258
4 -4 -68 -94 -139 -172 -16 -18 -84 -65 -151 -105 -158 -96 -159 -97 -177
-105 -8 -4 -22 -12 -30 -19 -8 -7 -40 -25 -70 -41 -30 -15 -62 -34 -70 -40 -8
-7 -40 -26 -71 -42 -31 -16 -89 -49 -128 -73 -40 -24 -80 -48 -90 -54 -42 -24
-192 -128 -197 -137 -10 -15 39 -2 102 28 28 13 54 24 57 24 7 0 149 65 267
123 77 38 151 77 283 151 26 15 47 24 47 21 0 -26 -139 -165 -164 -165 -4 0
-25 -13 -48 -30 -22 -16 -44 -30 -49 -30 -6 0 -132 -77 -294 -180 -13 -8 -58
-36 -99 -62 -137 -86 -318 -229 -306 -242 3 -3 25 2 49 10 38 13 80 34 216
109 35 19 206 121 275 163 32 20 150 82 156 82 6 0 -24 -45 -75 -113 -46 -62
-74 -84 -221 -179 -52 -33 -111 -72 -130 -85 -19 -14 -60 -41 -90 -61 -30 -19
-69 -47 -87 -61 -17 -14 -52 -42 -77 -61 -25 -19 -46 -40 -46 -47 0 -14 250
113 395 200 26 16 49 26 52 23 5 -5 -58 -109 -87 -143 -5 -7 -10 -15 -10 -18
0 -19 -61 -81 -124 -127 -76 -56 -252 -204 -275 -231 -22 -27 6 -21 69 14 115
64 180 98 180 93 0 -25 -65 -103 -139 -168 -102 -88 -182 -170 -200 -205 -12
-21 -11 -22 11 -16 12 4 43 22 67 39 78 56 111 76 111 70 0 -7 -68 -94 -81
-104 -4 -3 -32 -36 -63 -74 -42 -51 -53 -72 -46 -81 6 -7 7 -15 2 -17 -5 -1
-33 -41 -62 -88 -77 -123 -77 -123 -97 -70 -10 25 -46 102 -80 173 -34 70 -59
127 -55 127 4 0 25 -14 46 -30 71 -54 53 -20 -31 59 -105 99 -175 207 -89 140
59 -46 33 -5 -56 88 -87 91 -146 168 -136 178 2 2 46 -34 98 -81 157 -142 271
-237 277 -230 9 9 -124 179 -212 270 -41 44 -75 81 -75 83 0 17 41 -11 127
-87 56 -50 104 -90 107 -90 18 0 -1 45 -49 116 -113 167 -430 448 -687 609
-84 52 -119 82 -188 161 -104 118 -112 131 -73 110 67 -38 258 -167 560 -380
39 -28 110 -78 158 -111 48 -33 99 -70 114 -82 14 -13 32 -23 39 -23 35 0
-147 195 -283 304 -111 90 -391 293 -505 367 -47 31 -152 95 -234 143 -123 72
-167 103 -250 184 -56 53 -156 144 -224 201 -67 57 -121 106 -118 108 5 5 155
-70 280 -140 50 -27 100 -55 111 -61 11 -6 31 -18 45 -27 98 -61 180 -111 355
-214 110 -65 223 -133 250 -151 28 -19 101 -68 164 -109 63 -42 118 -74 124
-72 24 8 -296 280 -491 417 -51 36 -190 127 -310 203 -241 154 -616 346 -811
417 -63 23 -128 48 -145 57 -37 19 -187 124 -346 243 -63 47 -162 119 -220
159 -246 175 -273 195 -263 198 6 2 51 -15 99 -37 49 -23 141 -63 204 -90 63
-26 180 -80 260 -118 80 -38 217 -103 305 -145 231 -107 771 -383 904 -460 62
-37 115 -67 117 -67 2 0 32 -18 66 -40 60 -38 94 -50 86 -32 -1 5 -32 35 -68
67 -166 148 -400 304 -660 442 -311 165 -433 229 -485 253 -33 15 -143 68
-245 118 -183 88 -731 325 -965 416 -98 38 -137 60 -205 114 -229 179 -321
255 -317 258 2 2 30 -7 62 -22 32 -14 75 -31 94 -39 20 -7 131 -54 246 -105
116 -51 251 -109 300 -130 84 -35 120 -51 270 -120 33 -15 137 -60 230 -100
94 -39 222 -96 285 -125 63 -29 189 -85 280 -125 91 -40 171 -77 178 -83 17
-13 28 -1 14 16 -37 44 -514 311 -781 436 -102 49 -226 107 -276 131 -95 45
-319 145 -418 186 -32 14 -102 45 -155 70 -53 25 -187 84 -297 131 -340 144
-376 164 -509 275 -108 91 -123 116 -41 68 92 -53 488 -251 493 -246 3 4 1 11
-4 16 -19 18 -738 454 -804 486 -40 20 -196 164 -177 164 4 0 53 -30 110 -66
56 -37 125 -81 152 -99 28 -18 131 -79 230 -135 99 -56 216 -124 260 -150 175
-103 623 -337 870 -453 88 -41 189 -91 223 -111 35 -20 69 -36 75 -36 27 1
-82 81 -225 166 -348 208 -532 316 -693 407 -606 339 -1289 788 -1431 939 -44
46 -168 204 -200 253 l-19 30 26 -20 c15 -11 89 -77 165 -147 271 -247 610
-501 912 -685 141 -86 528 -270 541 -258 8 9 -15 26 -87 66 -162 89 -567 360
-722 483 -36 29 -117 92 -180 141 -327 253 -667 580 -876 841 -153 193 -198
267 -267 439 -39 100 -51 135 -43 135 2 0 35 -44 72 -97 221 -320 638 -787
919 -1031 168 -146 439 -341 453 -327 4 3 -29 39 -73 78 -181 162 -484 469
-659 667 -340 385 -522 627 -726 965 -111 183 -145 259 -164 360 -26 140 -46
278 -42 283 3 2 61 -108 130 -245 244 -482 487 -857 775 -1190 113 -132 317
-336 369 -371 49 -32 31 1 -50 90 -268 298 -645 876 -911 1396 -150 294 -186
374 -274 612 -69 188 -83 258 -83 435 0 112 13 138 30 64 48 -208 216 -646
373 -974 144 -300 142 -298 205 -405 115 -198 285 -433 436 -605 55 -61 54
-34 -2 52 -189 290 -329 546 -478 873 -153 338 -279 658 -359 911 -44 140
-130 488 -151 612 -15 91 -15 106 0 215 20 138 46 252 58 252 4 0 8 -17 8 -37
0 -66 40 -406 61 -513 44 -225 134 -566 214 -805 126 -378 193 -530 347 -791
96 -163 238 -346 238 -308 0 3 -35 67 -78 142 -117 206 -256 530 -332 774 -17
56 -49 157 -70 223 -159 502 -253 1028 -254 1430 l-1 190 65 118 65 118 6
-298 c5 -210 13 -345 27 -458 12 -88 24 -185 27 -215 15 -147 106 -601 150
-755 34 -115 107 -317 151 -413 59 -128 144 -255 144 -214 0 5 -18 49 -39 99
-36 82 -56 143 -67 197 -2 11 -10 40 -18 65 -9 25 -31 112 -51 193 -32 133
-53 246 -115 618 -11 63 -32 225 -47 360 -24 219 -27 283 -27 600 -1 195 3
381 7 413 7 47 20 75 69 148 33 50 62 88 64 86 2 -2 -5 -93 -17 -203 -18 -171
-20 -240 -16 -494 9 -516 70 -923 188 -1255 57 -163 201 -416 224 -393 2 2
-21 66 -51 141 -85 210 -164 565 -189 852 -3 33 -12 137 -20 230 -23 259 -21
759 5 1006 28 260 37 317 60 348 29 41 129 135 135 129 4 -3 -7 -46 -23 -95
-38 -112 -66 -241 -99 -457 -23 -152 -26 -201 -27 -441 0 -296 8 -365 65 -565
47 -163 120 -332 168 -390 27 -33 27 -12 0 65 -38 108 -71 252 -95 425 -20
136 -22 484 -4 667 15 148 60 404 99 556 26 101 114 336 156 417 12 24 75 74
82 66 2 -2 -4 -23 -13 -47 -21 -60 -80 -299 -93 -379 -48 -300 -62 -848 -26
-1030 30 -156 83 -310 106 -310 12 0 12 -4 -13 97 -37 147 -34 491 7 843 40
342 57 444 97 598 31 120 52 182 43 127 -2 -16 -16 -99 -30 -184 -18 -110 -27
-213 -31 -365 -4 -116 -4 -208 -1 -205 4 3 13 70 21 150 32 302 38 348 67 484
36 173 65 294 78 328 9 24 47 54 57 45 2 -2 -5 -40 -15 -84 -30 -126 -79 -409
-91 -524 -14 -138 -12 -489 4 -564 13 -65 43 -95 34 -35 -11 74 53 561 113
854 44 218 85 388 100 417 10 18 107 73 115 65 5 -5 -23 -526 -31 -577 -11
-66 -18 -500 -8 -500 16 0 86 398 107 610 14 139 26 289 32 393 6 109 8 119
30 133 54 36 53 46 61 -431 4 -242 8 -473 8 -512 0 -47 4 -73 11 -73 33 0 64
367 64 764 l0 307 27 10 c14 5 28 8 30 5 2 -2 8 -64 13 -138 8 -119 13 -160
25 -248 2 -14 6 -61 10 -105 3 -44 10 -100 15 -125 5 -25 12 -62 15 -82 3 -21
10 -38 14 -38 23 0 20 338 -4 590 -2 25 -7 73 -10 107 l-6 62 38 10 c21 6 43
11 50 11 14 0 33 -65 57 -190 13 -69 153 -580 161 -588 3 -3 7 -3 10 0 6 6
-11 179 -25 253 -5 28 -11 61 -14 75 -11 67 -58 313 -71 372 -24 106 -24 105
48 121 77 18 78 17 100 -95 37 -183 136 -685 142 -718 36 -211 59 -92 35 180
-11 123 -45 340 -85 535 -14 66 -25 123 -25 127 0 7 129 23 136 16 11 -12 145
-692 159 -808 13 -116 16 -136 26 -174 6 -21 13 -36 15 -33 3 3 6 83 6 179 -1
175 -12 303 -36 413 -8 33 -19 94 -26 135 -7 41 -25 124 -40 183 -19 75 -24
110 -16 112 6 2 39 6 73 10 l62 6 10 -38 c26 -95 142 -719 155 -834 3 -25 15
-90 27 -144 46 -216 59 -192 49 90 -11 266 -13 288 -86 690 -3 17 -14 66 -26
110 -11 44 -23 93 -25 108 l-5 28 57 -3 58 -3 19 -55 c65 -186 173 -643 203
-855 35 -254 46 -265 50 -50 4 183 -21 397 -69 605 -28 118 -78 291 -103 357
-7 18 121 18 135 1 25 -31 102 -247 117 -325 2 -13 15 -67 29 -120 14 -54 27
-113 31 -130 3 -18 12 -61 19 -95 8 -35 22 -115 31 -178 9 -63 25 -163 35
-221 10 -59 28 -176 40 -260 28 -206 39 -261 53 -256 13 4 14 18 16 272 3 258
-38 622 -99 882 -54 232 -75 300 -137 441 -4 8 7 12 36 12 41 0 43 -1 65 -52
51 -116 136 -392 186 -603 47 -196 115 -627 156 -987 12 -110 20 -148 30 -148
9 0 14 12 15 33 1 17 3 43 5 57 2 14 5 133 7 265 2 203 -2 268 -21 420 -44
333 -137 715 -226 923 -20 46 -36 86 -36 88 0 2 34 4 75 4 88 0 82 7 138 -165
71 -218 141 -516 177 -752 12 -76 30 -194 41 -263 27 -177 59 -526 59 -647 0
-82 3 -103 14 -103 10 0 18 23 27 73 17 100 18 642 1 762 -7 50 -15 108 -18
130 -22 182 -63 387 -120 605 -31 118 -52 183 -96 303 -6 15 -8 31 -5 34 3 3
28 2 56 -2 l49 -7 35 -81 c92 -214 183 -566 222 -857 4 -25 15 -99 25 -165 19
-125 36 -258 45 -360 3 -33 13 -118 21 -190 13 -115 24 -275 24 -359 0 -52 15
-17 32 77 20 110 24 510 8 710 -35 427 -134 875 -247 1120 -20 42 -34 79 -32
82 10 9 124 -24 135 -40 41 -56 191 -655 209 -835 3 -36 12 -103 20 -150 12
-75 23 -169 40 -345 2 -27 7 -108 11 -179 3 -71 8 -136 9 -145 2 -9 4 -85 4
-168 1 -84 5 -153 10 -153 4 0 14 21 20 48 7 26 16 63 21 82 17 67 33 405 27
575 -8 214 -39 491 -78 685 -28 140 -110 444 -144 533 -6 15 4 13 74 -13 107
-39 120 -47 131 -75 16 -42 78 -324 100 -450 77 -450 93 -1276 35 -1780 -8
-71 -18 -140 -21 -152 -5 -17 -2 -23 9 -23 8 0 17 10 20 23 3 12 17 60 31 107
32 105 69 308 91 500 24 210 25 731 1 985 -25 269 -57 452 -117 658 -28 96
-25 103 36 71 28 -15 51 -27 52 -29 5 -4 83 -273 106 -370 25 -101 42 -195 52
-295 3 -30 11 -89 18 -130 15 -96 14 -749 -2 -950 -6 -80 -16 -208 -22 -285
-5 -77 -11 -151 -13 -165 -9 -62 -38 -248 -42 -272 -8 -40 18 -36 34 5 79 201
115 353 153 657 28 224 30 273 32 580 2 275 -1 359 -16 470 -33 249 -67 395
-129 566 -16 46 -28 88 -26 94 2 6 44 -18 94 -54 l92 -65 31 -113 c82 -296
109 -612 88 -1023 -14 -260 -68 -720 -131 -1095 -18 -113 -37 -227 -41 -254
-3 -27 -9 -55 -12 -62 -3 -8 0 -14 7 -14 20 0 98 183 139 331 23 79 45 160 51
179 20 73 41 192 70 395 47 342 53 417 54 700 1 237 -2 289 -23 425 -13 85
-34 198 -47 250 -32 125 -30 133 12 85 86 -98 79 -71 134 -475 18 -137 34
-578 24 -683 -5 -54 -6 -100 -3 -103 34 -21 58 409 39 676 -5 63 -16 168 -25
232 -10 64 -15 123 -13 130 5 14 68 -67 92 -117 34 -74 44 -627 16 -905 -5
-52 -17 -171 -25 -265 -26 -297 -35 -378 -46 -450 -5 -38 -23 -162 -39 -275
-16 -113 -32 -217 -36 -232 -11 -50 11 -30 33 30 37 96 76 245 97 372 8 47 22
118 30 158 8 40 22 137 31 215 9 78 23 198 30 267 27 239 37 446 33 673 -3
125 -4 227 -2 227 3 0 114 -228 114 -235 0 -4 13 -37 29 -73 28 -67 28 -67 20
-197 -10 -163 -21 -242 -69 -535 -37 -224 -141 -757 -159 -810 -13 -41 0 -57
16 -19 17 40 81 248 88 287 5 28 23 99 51 200 27 100 40 165 94 467 11 61 25
156 32 213 7 56 16 102 20 102 4 0 8 -3 8 -6 0 -3 16 -91 35 -196 l36 -191
-17 -81 c-47 -237 -157 -658 -201 -773 -3 -7 -1 -13 5 -13 10 0 82 181 111
280 10 36 35 117 54 180 20 63 47 149 59 190 l22 75 13 -55 c28 -121 27 -147
-11 -322 -20 -91 -50 -208 -66 -259 -16 -51 -27 -95 -25 -98 18 -17 97 194
130 343 3 16 10 25 14 20 10 -11 49 -277 67 -454 15 -156 18 -177 45 -324 22
-117 47 -179 80 -196 11 -6 41 -9 66 -7 45 3 47 5 59 47 14 48 28 157 44 355
6 72 15 144 20 160 4 17 13 66 20 110 6 44 19 118 28 165 l18 84 21 -49 c24
-54 52 -97 53 -78 0 6 -14 53 -31 105 l-30 93 20 81 c11 44 24 91 30 105 11
30 15 19 31 -86 21 -140 94 -374 122 -391 11 -7 10 3 -7 91 -15 80 -45 244
-49 275 -3 19 -8 58 -11 85 -4 28 -13 90 -20 140 -12 79 -12 98 1 157 9 38 19
68 23 68 4 0 13 -37 20 -82 45 -293 120 -578 152 -578 12 0 11 13 -5 79 -13
51 -30 188 -42 346 -2 33 -6 74 -8 90 -11 76 -27 285 -28 358 0 73 5 98 47
217 25 74 49 143 52 153 3 9 8 17 12 17 3 0 6 -136 7 -303 1 -320 9 -408 59
-647 30 -145 59 -239 96 -312 50 -99 64 -83 28 32 -22 70 -53 276 -64 430 -19
257 -8 833 20 1049 14 108 38 203 48 190 2 -2 0 -49 -5 -104 -24 -303 -34
-575 -19 -559 8 8 13 46 46 359 7 72 16 141 18 155 3 14 11 81 17 150 7 69 19
145 27 169 17 51 95 179 100 165 2 -6 -4 -43 -12 -84 -14 -67 -31 -187 -49
-335 -3 -27 -14 -113 -23 -190 -21 -170 -24 -612 -4 -748 21 -155 99 -417 124
-417 11 0 9 27 -15 145 -18 90 -22 146 -22 315 -1 217 8 439 23 580 13 121 59
464 71 535 12 70 25 128 72 325 24 103 42 143 84 188 52 56 52 53 24 -103 -32
-182 -69 -496 -86 -745 -27 -384 -5 -761 54 -945 11 -32 25 -61 31 -63 14 -5
14 6 -5 108 -14 78 -20 402 -10 535 2 22 7 87 11 145 4 58 9 113 10 122 2 9 7
49 11 90 4 40 12 125 19 188 l12 115 2 -110 c6 -372 14 -544 34 -673 17 -113
33 -102 27 18 -10 185 4 707 24 940 2 25 12 137 21 249 21 272 34 334 70 363
41 33 109 78 112 74 2 -1 -6 -37 -17 -79 -29 -115 -52 -283 -79 -587 -5 -52
-8 -273 -7 -490 3 -431 15 -568 71 -792 26 -101 89 -248 106 -248 12 0 12 -3
-15 104 -33 125 -47 273 -62 641 -7 165 9 685 25 835 6 52 18 165 27 250 20
187 68 416 100 472 8 15 109 88 121 88 3 0 3 -15 -1 -32 -9 -46 -46 -251 -56
-318 -5 -30 -14 -116 -20 -190 -6 -74 -13 -151 -15 -170 -18 -164 -27 -437
-21 -655 7 -292 10 -327 37 -460 12 -55 23 -111 25 -125 10 -50 38 -130 47
-130 4 0 6 8 3 18 -6 20 -14 95 -26 242 -13 162 4 690 30 950 5 52 14 156 20
230 11 130 36 349 46 400 3 14 12 68 20 120 21 140 34 200 44 200 10 0 17
-153 26 -535 6 -266 8 -336 13 -450 3 -81 21 -8 31 132 6 76 13 156 16 178 2
22 5 195 7 385 l2 344 40 23 c22 12 43 19 46 15 7 -7 14 -59 24 -177 3 -33 7
-71 10 -85 5 -28 23 -260 30 -395 9 -170 16 -228 28 -216 16 16 24 478 11 624
-21 222 -26 272 -31 280 -5 8 73 46 95 47 6 0 12 -8 12 -17 0 -10 20 -85 45
-166 45 -149 94 -342 115 -450 23 -115 32 -24 15 145 -6 68 -40 228 -79 383
-37 143 -38 138 42 161 37 10 71 19 76 19 9 0 20 -31 65 -190 54 -194 80 -308
111 -490 17 -98 34 -184 39 -193 20 -36 28 248 10 360 -24 146 -70 335 -115
477 -20 63 -19 66 31 79 75 20 79 18 124 -56 22 -38 41 -71 41 -75 0 -3 13
-34 29 -69 37 -80 73 -171 106 -273 27 -84 99 -387 110 -467 8 -50 18 -61 30
-30 10 26 3 234 -11 325 -30 193 -141 513 -217 625 -16 24 -27 49 -24 56 3 7
36 18 73 25 38 7 79 15 91 18 18 4 25 -2 38 -34 19 -43 53 -143 65 -188 4 -16
35 -117 69 -223 50 -160 130 -468 146 -564 2 -13 8 -50 14 -83 6 -33 13 -80
16 -105 7 -47 11 -57 20 -48 10 10 6 232 -5 328 -13 112 -35 241 -56 325 -29
115 -132 435 -176 542 -12 29 -19 55 -16 58 3 3 21 8 40 12 40 6 30 21 90
-147 16 -47 31 -93 33 -102 2 -10 24 -93 50 -185 61 -224 62 -227 90 -383 34
-187 56 -273 66 -263 5 5 2 46 -6 93 -8 47 -17 105 -19 130 -14 135 -20 177
-47 300 -15 74 -39 173 -52 220 -13 47 -32 117 -42 155 -10 39 -29 94 -42 123
-28 64 -29 72 -2 72 16 0 29 -18 58 -82 33 -72 147 -411 195 -578 24 -84 73
-315 86 -405 6 -44 14 -90 17 -102 21 -90 31 138 13 302 -6 55 -20 143 -31
196 -27 130 -150 503 -198 600 l-39 79 28 0 c24 0 31 -8 67 -87z m-9422 -1
c22 -37 40 -70 40 -74 0 -3 -24 -25 -53 -48 -65 -52 -75 -46 -75 47 -1 73 17
143 36 143 7 0 30 -31 52 -68z m5773 12 c28 -20 28 -36 0 -30 -87 18 -85 16
-64 32 25 18 36 18 64 -2z m7100 -49 c18 -40 14 -71 -13 -104 -30 -35 -54 -45
-82 -34 -20 8 -18 12 25 86 24 42 48 77 52 77 4 0 12 -11 18 -25z m-7367 -11
c7 -20 6 -39 -6 -75 -22 -65 -39 -78 -60 -45 -16 24 -15 27 17 85 18 34 34 61
36 61 1 0 7 -12 13 -26z m473 -46 c8 -13 18 -36 22 -53 l7 -30 -41 39 c-32 30
-39 43 -31 53 16 19 26 16 43 -9z m-228 -50 c75 -35 159 -120 199 -202 66
-133 72 -266 24 -501 -30 -152 -43 -185 -55 -149 -4 10 -25 62 -47 114 -69
165 -68 162 -45 212 45 95 47 98 36 98 -12 0 -68 -60 -68 -73 0 -20 -22 8 -46
59 -29 61 -28 86 5 153 10 22 16 42 14 45 -10 10 -43 -15 -58 -44 -9 -17 -19
-30 -24 -30 -13 0 -161 186 -161 203 0 8 7 20 16 28 8 7 27 34 40 61 24 48 25
48 74 48 31 0 68 -8 96 -22z m-7552 -115 c3 -38 13 -93 21 -123 16 -60 14 -70
-11 -49 -25 20 -54 89 -54 128 0 38 20 111 30 111 4 0 10 -30 14 -67z m15358
50 c10 -9 18 -24 18 -34 0 -10 5 -30 12 -44 6 -14 9 -27 6 -30 -3 -3 -30 6
-62 20 -31 14 -63 25 -71 25 -30 0 -23 20 17 49 48 36 55 37 80 14z m-224 -27
c11 -11 -1 -14 -64 -19 -43 -4 -79 -5 -81 -3 -2 2 15 13 39 25 44 22 81 21
106 -3z m-592 -7 c2 -7 6 -23 9 -34 4 -13 -2 -31 -15 -48 -25 -32 -116 -81
-125 -68 -7 13 104 173 118 168 5 -1 12 -10 13 -18z m-6612 -159 l6 -45 -15
50 c-16 56 -19 77 -6 55 5 -8 11 -35 15 -60z m7652 30 c7 -14 15 -45 19 -69
l7 -45 -60 50 c-65 52 -72 67 -44 83 28 18 66 8 78 -19z m-956 10 c0 -5 -10
-15 -22 -21 -23 -12 -23 -12 -4 10 21 23 26 26 26 11z m-50 -34 c0 -2 -32 -29
-71 -61 l-70 -57 3 38 c3 36 5 38 49 49 25 7 54 17 65 23 21 13 24 14 24 8z
m661 -36 c156 -48 309 -204 375 -382 32 -83 61 -252 63 -354 3 -191 -56 -368
-196 -584 -80 -123 -314 -352 -457 -448 -122 -82 -373 -209 -386 -196 -4 5
-11 68 -14 139 -4 72 -9 147 -12 168 -5 35 -3 40 43 82 26 24 63 52 81 62 17
10 32 22 32 28 0 5 14 19 30 30 56 38 33 45 -58 19 -32 -9 -74 -25 -95 -36
-22 -11 -41 -17 -44 -14 -3 3 -7 32 -10 64 l-5 59 74 62 c129 107 242 193 290
220 47 26 64 47 31 37 -173 -49 -211 -67 -327 -156 -37 -27 -71 -50 -76 -50
-4 0 -11 27 -15 61 l-7 61 50 49 c81 79 280 390 270 421 -4 10 -128 -112 -155
-152 -9 -14 -19 -27 -22 -30 -4 -3 -39 -44 -79 -92 -40 -49 -75 -88 -76 -88
-2 0 -11 35 -20 78 -45 215 -62 281 -116 445 l-58 178 96 83 c141 121 222 171
337 211 137 47 348 59 456 25z m-7294 -52 c-3 -7 -5 -2 -5 12 0 14 2 19 5 13
2 -7 2 -19 0 -25z m6418 10 c-8 -29 -57 -101 -69 -102 -5 -1 -14 7 -20 16 -9
15 -3 25 34 63 49 50 65 56 55 23z m1421 -60 c13 -24 15 -47 10 -97 -9 -101
-28 -106 -72 -18 -15 28 -35 63 -46 78 -22 29 -18 46 16 59 46 19 75 12 92
-22z m-15741 -144 l2 -72 -51 20 c-28 11 -61 24 -73 29 -21 8 -21 10 -7 38 21
42 53 62 93 59 l33 -3 3 -71z m11812 44 c-3 -8 -6 -5 -6 6 -1 11 2 17 5 13 3
-3 4 -12 1 -19z m-12058 -12 c15 -8 33 -22 40 -30 12 -14 8 -16 -35 -16 -27 0
-66 -3 -86 -6 -45 -8 -50 7 -16 43 25 26 57 29 97 9z m367 -48 c49 -71 48 -71
26 -59 -28 15 -62 60 -62 82 0 27 4 24 36 -23z m-596 9 c23 -12 41 -27 39 -32
-2 -6 -24 -17 -49 -26 -25 -9 -64 -26 -88 -38 -46 -23 -82 -16 -82 16 0 21 37
80 58 93 28 16 77 11 122 -13z m16342 -84 c25 -22 23 -38 -16 -119 -42 -89
-61 -99 -76 -41 -6 23 -19 70 -29 104 l-18 62 21 4 c51 10 100 6 118 -10z
m-16548 -48 c19 -14 18 -15 -10 -37 -16 -12 -53 -46 -83 -75 -30 -29 -56 -53
-58 -53 -7 0 -2 45 9 82 13 45 68 98 101 98 12 0 31 -7 41 -15z m626 -45 c71
-28 182 -84 241 -121 35 -22 51 -41 64 -74 24 -65 64 -90 145 -91 l65 -1 -3
-46 c-6 -76 23 -155 74 -204 24 -24 51 -43 59 -43 7 0 25 -4 39 -10 l25 -9
-40 -88 c-47 -101 -129 -304 -154 -380 -9 -29 -19 -53 -22 -53 -9 0 -62 46
-181 157 -61 57 -117 103 -123 101 -17 -6 130 -216 209 -297 l74 -76 -13 -58
c-15 -71 -23 -75 -153 -84 -82 -5 -99 -3 -166 21 -110 39 -110 39 -110 28 0
-12 93 -82 150 -113 39 -21 59 -24 143 -24 112 0 106 10 82 -120 -8 -44 -20
-178 -26 -297 -8 -140 -17 -218 -23 -218 -37 0 -342 111 -451 164 -165 81
-259 144 -361 243 -174 168 -297 383 -359 628 -28 111 -34 203 -23 355 14 195
57 314 163 455 109 144 241 228 440 279 45 11 181 -2 235 -24z m476 -126 c30
-25 54 -50 54 -55 0 -18 -79 -10 -100 11 -19 19 -29 90 -14 90 4 0 31 -21 60
-46z m15419 -60 c19 -8 38 -28 45 -45 24 -57 -15 -144 -62 -137 -22 3 -23 7
-25 101 -1 53 0 97 3 97 3 0 21 -7 39 -16z m-16774 -101 c-10 -21 -28 -59 -40
-85 -30 -66 -45 -62 -39 9 4 48 10 61 37 85 17 15 38 28 46 28 13 0 12 -6 -4
-37z m1669 -153 c0 -8 -9 -26 -19 -39 l-19 -25 -47 18 c-39 15 -50 26 -65 60
-18 40 -24 82 -21 141 1 29 3 28 86 -55 47 -47 85 -91 85 -100z m15107 -30
c38 -37 50 -88 29 -128 -25 -48 -39 -55 -75 -35 -35 20 -35 22 -21 95 19 93
20 98 28 98 5 0 22 -14 39 -30z m-16870 -62 c-3 -24 -11 -98 -18 -165 -7 -68
-16 -123 -21 -123 -5 0 -20 24 -33 53 -42 90 -31 190 28 255 34 36 50 29 44
-20z m16791 -197 c31 -55 28 -99 -8 -150 -38 -52 -52 -58 -84 -34 -31 22 -31
28 -5 78 11 22 29 64 40 93 11 28 24 52 28 52 4 0 17 -17 29 -39z m-16803
-278 c4 -27 15 -78 25 -115 10 -38 15 -68 11 -68 -12 0 -58 90 -66 128 -8 38
1 102 15 102 5 0 12 -21 15 -47z m16657 10 c3 -69 -1 -85 -27 -108 -29 -27
-91 -43 -107 -27 -7 7 9 35 51 91 34 45 66 81 71 81 6 0 11 -17 12 -37z m-208
-250 c16 -61 -32 -107 -122 -119 -41 -5 -52 -4 -51 7 1 16 138 138 155 138 7
1 15 -11 18 -26z m-16260 -282 c-8 -8 -65 53 -85 91 -10 21 -19 57 -19 80 l1
43 54 -105 c30 -57 52 -106 49 -109z m15999 77 c-3 -18 -12 -45 -19 -60 -31
-60 -145 -93 -160 -46 -5 16 -2 25 11 33 10 5 50 31 89 57 39 25 74 47 78 47
4 1 5 -14 1 -31z m-263 -152 c0 -44 -69 -106 -118 -106 -26 0 -50 21 -57 51
-6 25 -3 27 67 51 97 33 108 34 108 4z m-226 -52 c12 -32 5 -56 -23 -85 -16
-16 -34 -29 -40 -29 -16 0 -14 117 2 123 25 11 55 6 61 -9z m-15345 -79 c65
-75 74 -93 39 -74 -67 35 -93 65 -113 128 -11 37 8 23 74 -54z m15707 0 c17
-13 12 -14 -55 -15 -97 0 -83 19 20 29 8 0 24 -6 35 -14z m-291 -25 c3 -5 -1
-10 -10 -10 -9 0 -13 5 -10 10 3 6 8 10 10 10 2 0 7 -4 10 -10z m524 -21 c13
-17 20 -33 17 -36 -2 -3 -28 5 -56 18 -46 21 -50 25 -34 36 28 20 48 15 73
-18z m186 -119 c30 -57 17 -64 -35 -19 -29 24 -32 31 -20 39 25 16 39 11 55
-20z m-346 -15 c102 -32 220 -112 284 -190 42 -53 102 -162 113 -205 33 -139
42 -208 43 -311 0 -101 -4 -125 -28 -195 -27 -77 -87 -204 -101 -214 -3 -3
-26 -33 -49 -68 -80 -119 -271 -289 -404 -360 -139 -74 -325 -127 -484 -138
l-93 -7 0 25 c0 14 12 72 26 129 19 75 32 108 48 119 11 8 68 35 126 59 116
49 116 49 108 57 -5 5 -137 -9 -199 -22 l-26 -5 13 88 c7 48 16 98 18 109 6
23 82 73 181 118 33 15 67 31 76 35 8 5 51 23 95 41 105 42 124 52 124 62 0 5
-15 7 -32 4 -18 -3 -73 -10 -123 -16 -99 -12 -165 -30 -237 -66 -26 -13 -49
-20 -51 -16 -2 4 3 44 11 89 l15 82 96 64 c53 35 132 88 176 116 l80 53 -50
-7 c-59 -8 -149 -36 -196 -61 -19 -10 -47 -24 -62 -31 l-29 -13 6 93 c9 130
17 302 20 442 l3 120 49 18 c54 20 203 35 307 30 37 -2 103 -15 146 -28z
m-15658 -26 c6 -51 31 -104 56 -118 10 -5 16 -11 13 -13 -3 -2 -31 -28 -63
-58 -37 -34 -61 -50 -67 -44 -16 16 -31 115 -24 165 9 67 17 76 48 55 26 -16
26 -16 26 8 0 14 -4 28 -10 31 -14 9 -12 27 3 23 6 -3 14 -24 18 -49z m187
-46 c48 -25 39 -62 -13 -49 -32 8 -85 63 -85 88 0 20 0 20 33 -2 17 -11 47
-28 65 -37z m213 -99 c52 -20 96 -38 98 -40 8 -8 -67 -33 -116 -40 -46 -6 -52
-4 -66 17 -20 31 -33 99 -19 99 5 0 52 -16 103 -36z m15795 -19 c15 -37 19
-125 6 -125 -8 0 -72 136 -72 153 0 4 11 7 26 7 19 0 28 -8 40 -35z m-15971
-77 c38 -81 111 -103 193 -60 51 26 52 26 52 7 0 -28 39 -93 69 -114 47 -33
98 -28 142 15 l36 35 35 -35 c22 -22 52 -39 81 -47 41 -10 47 -15 52 -43 9
-56 20 -368 13 -372 -4 -3 -43 16 -87 41 -95 55 -241 111 -241 92 0 -24 231
-207 318 -251 18 -10 32 -24 32 -35 0 -16 -13 -19 -107 -24 -58 -4 -139 -7
-180 -7 -160 0 -45 -56 174 -85 63 -8 118 -15 122 -15 5 0 14 -37 20 -82 6
-46 23 -145 38 -221 17 -88 23 -141 17 -147 -6 -6 -106 -11 -229 -12 -187 -3
-231 0 -295 16 -90 22 -257 100 -322 150 -110 84 -223 270 -254 417 -46 215
74 630 223 776 25 24 52 43 62 43 10 0 25 -17 36 -42z m395 27 c36 -9 71 -18
78 -20 18 -6 -76 -94 -100 -95 -21 0 -58 67 -58 105 0 29 -3 29 80 10z m258
-82 c2 -43 0 -53 -12 -53 -29 0 -76 63 -76 101 0 6 19 9 43 7 l42 -3 3 -52z
m15437 -141 c14 -20 25 -47 25 -60 0 -29 -57 -115 -73 -109 -6 2 -13 21 -14
43 -2 21 -8 61 -13 87 -6 26 -10 59 -10 72 0 22 2 23 30 13 17 -5 42 -27 55
-46z m-16526 -189 c-5 -21 -15 -62 -21 -90 -7 -29 -17 -53 -24 -53 -25 0 -74
82 -74 124 0 38 25 56 80 56 l48 0 -9 -37z m16505 -168 c4 -30 -1 -53 -21 -93
-44 -88 -82 -92 -49 -5 8 21 18 56 22 78 4 22 8 43 9 48 2 4 3 15 4 24 2 32
30 -8 35 -52z m-16540 -247 c9 -38 -47 -11 -69 33 -19 36 -8 89 27 126 l23 25
7 -84 c4 -45 9 -91 12 -100z m16436 -37 c0 -16 -7 -44 -15 -64 -13 -32 -26
-45 -94 -96 -19 -14 -25 -29 -27 -71 -4 -68 -40 -128 -92 -158 -53 -30 -62
-28 -62 13 0 34 11 50 114 161 34 37 98 133 122 184 15 31 37 60 45 60 5 0 9
-13 9 -29z m-16350 -192 c22 -45 40 -83 40 -85 0 -12 -89 -2 -109 12 -21 15
-23 22 -17 62 5 41 29 92 41 92 3 0 23 -36 45 -81z m264 -321 c5 -4 -2 -18
-18 -33 -29 -27 -81 -34 -116 -15 -24 13 -40 62 -40 121 0 87 5 87 89 7 42
-39 80 -75 85 -80z m15681 29 c-30 -60 -69 -107 -89 -107 -7 0 -17 15 -22 32
-10 32 -9 34 61 84 38 29 72 50 74 48 2 -2 -9 -28 -24 -57z m-15510 -113 c39
-15 72 -30 74 -31 8 -5 -53 -64 -79 -78 -14 -7 -31 -10 -38 -8 -19 7 -39 52
-47 107 -5 39 -4 48 7 43 7 -2 45 -17 83 -33z m15295 3 c0 -29 -96 -127 -124
-127 -33 0 -68 29 -64 53 2 16 17 25 68 40 35 10 74 25 85 33 25 18 35 18 35
1z m-14516 -71 c13 -54 13 -58 -7 -77 -33 -30 -55 -23 -87 28 -43 68 -40 86
18 105 26 8 51 12 55 8 5 -4 14 -33 21 -64z m-501 -3 c31 -3 57 -11 57 -17 0
-6 -16 -32 -35 -58 -38 -52 -70 -62 -101 -31 -21 21 -44 75 -44 104 0 19 4 21
33 15 17 -4 58 -9 90 -13z m297 -4 c0 -21 -50 -79 -68 -79 -16 0 -74 72 -65
80 10 10 45 17 96 19 31 1 37 -2 37 -20z m14155 -11 l60 -11 -60 -61 c-90 -92
-137 -129 -145 -116 -4 7 1 37 11 69 10 31 23 76 29 99 9 35 15 42 28 37 9 -4
44 -12 77 -17z m254 -10 c-24 -47 -71 -98 -90 -98 -12 0 -21 9 -25 28 -4 15
-12 37 -20 49 -13 21 -12 22 44 28 31 4 62 8 67 10 29 10 36 5 24 -17z
m-14483 -148 c40 0 51 5 78 35 l32 35 23 -31 c12 -16 38 -37 57 -47 33 -15 39
-15 80 0 33 11 46 13 49 5 2 -7 20 -66 39 -132 20 -66 47 -153 61 -194 14 -41
25 -79 25 -84 0 -6 -86 -8 -220 -5 -121 2 -220 3 -220 1 0 -1 18 -12 39 -23
73 -37 191 -63 315 -69 l119 -6 18 -50 c25 -70 23 -78 -19 -97 -57 -28 -378
-276 -368 -286 6 -6 86 18 136 40 37 17 204 117 283 171 21 14 31 3 48 -54 10
-33 8 -41 -45 -135 -77 -138 -75 -152 9 -83 28 23 52 44 55 48 3 3 13 12 22
20 16 12 20 10 34 -25 9 -22 45 -104 80 -183 51 -116 62 -147 52 -157 -22 -20
-276 -115 -377 -140 -213 -54 -489 -18 -647 84 -164 106 -295 280 -339 448
-27 104 -17 343 20 484 36 135 108 286 170 356 40 46 44 48 69 36 41 -18 100
-15 129 8 14 11 33 40 43 65 l17 45 43 -40 c38 -35 50 -40 90 -40z m-409 54
c7 -18 -20 -44 -44 -44 -18 0 -16 16 4 40 21 24 32 25 40 4z m-157 -169 c0 -2
-16 -33 -35 -67 -35 -63 -35 -63 -35 -28 0 40 33 100 55 100 8 0 15 -2 15 -5z
m15045 -35 c3 -5 -1 -10 -9 -10 -8 0 -18 5 -21 10 -3 6 1 10 9 10 8 0 18 -4
21 -10z m-330 -44 c22 -8 83 -26 135 -41 137 -38 210 -78 301 -163 113 -106
155 -187 185 -355 38 -216 -5 -353 -160 -510 -135 -136 -232 -206 -396 -285
-127 -62 -167 -75 -307 -106 -172 -38 -282 -50 -406 -43 -103 6 -187 20 -187
33 0 3 33 53 73 112 41 59 106 166 147 237 88 156 98 169 175 207 114 58 215
90 335 107 25 3 44 11 43 16 -1 6 -25 16 -55 23 -68 18 -178 5 -266 -30 -34
-14 -62 -22 -62 -17 0 6 6 25 14 44 16 36 48 57 158 99 84 32 184 79 233 111
22 14 47 28 55 31 19 6 44 43 35 52 -3 3 -43 6 -88 5 -86 -1 -165 -18 -242
-52 -25 -11 -45 -16 -45 -12 0 12 51 135 62 148 5 6 52 33 104 59 51 25 94 49
94 51 0 3 -32 3 -72 1 -41 -1 -73 1 -75 7 -3 10 76 250 90 273 11 16 72 15
122 -2z m542 -71 c19 -13 39 -55 26 -55 -11 0 -71 58 -66 64 9 9 17 7 40 -9z
m-15377 -120 c0 -9 -9 -48 -19 -88 -11 -39 -21 -83 -23 -97 -6 -45 -32 -29
-46 29 -16 66 -9 115 23 147 27 27 65 32 65 9z m15560 -86 c6 -11 10 -37 8
-57 l-3 -37 -31 62 c-18 34 -29 64 -27 67 9 9 42 -13 53 -35z m-15614 -305 c0
-122 -1 -125 -18 -104 -10 12 -25 46 -34 75 -13 46 -13 58 -1 87 12 28 42 68
51 68 1 0 2 -57 2 -126z m15699 62 c32 -32 41 -85 21 -125 -26 -50 -40 -42
-49 29 -3 19 -8 54 -12 78 -9 49 3 55 40 18z m7 -273 c25 -65 7 -143 -46 -192
-20 -19 -29 -22 -38 -13 -9 9 -4 34 20 104 18 51 32 101 32 111 0 26 19 20 32
-10z m-15618 -138 c20 -36 43 -77 52 -90 24 -36 1 -31 -44 10 -36 32 -62 87
-62 129 0 32 19 15 54 -49z m15457 -213 c-6 -2 -11 -9 -11 -16 0 -36 -92 -108
-112 -88 -7 7 44 82 71 102 4 3 18 21 31 40 l25 35 3 -35 c2 -19 -1 -36 -7
-38z m-15246 -60 c-7 -7 -45 29 -45 41 0 6 11 0 25 -13 14 -13 23 -26 20 -28z
m1305 -26 c15 -27 14 -28 -20 -57 -19 -16 -40 -29 -47 -29 -13 0 -53 39 -53
51 0 12 83 69 95 65 6 -1 17 -15 25 -30z m-1038 -153 c-8 -7 -37 -13 -64 -13
-59 0 -88 24 -88 73 l0 33 84 -41 c73 -34 83 -42 68 -52z m14788 11 c-10 -46
-20 -64 -53 -95 -35 -32 -49 -39 -85 -39 -49 0 -102 23 -102 45 0 8 4 15 9 15
5 0 46 26 91 58 144 101 145 101 148 86 2 -8 -2 -39 -8 -70z m-13935 66 c15
-25 -56 -120 -90 -120 -21 0 -83 55 -74 65 6 6 140 63 151 64 4 1 10 -3 13 -9z
m319 -153 c29 -51 78 -126 108 -168 30 -42 58 -81 61 -86 4 -6 -44 -31 -116
-61 -162 -66 -385 -152 -397 -152 -5 0 -12 -5 -16 -11 -5 -8 26 -10 112 -7
100 4 135 10 214 37 109 36 215 79 247 99 20 12 24 9 77 -59 54 -68 66 -94 47
-101 -14 -5 -241 -312 -241 -326 0 -25 114 71 244 206 33 34 65 62 72 62 6 0
23 -15 36 -32 24 -32 25 -37 20 -160 -4 -106 -2 -128 9 -128 13 0 69 122 69
151 0 6 3 9 8 7 24 -10 334 -340 329 -350 -2 -8 -17 -20 -33 -28 -16 -8 -45
-24 -64 -36 -35 -21 -223 -101 -290 -124 -122 -40 -447 -64 -580 -41 -132 22
-263 65 -360 118 -68 36 -87 72 -138 262 l-37 136 0 325 c0 316 1 326 21 350
12 14 32 44 46 68 22 38 26 41 38 27 19 -23 85 -55 113 -55 39 0 90 41 115 93
l23 47 29 -15 c49 -26 101 -14 144 34 10 11 22 18 27 15 5 -2 33 -46 63 -97z
m-601 26 c-68 -93 -111 -106 -143 -43 -11 23 -18 45 -15 50 3 6 23 11 43 11
20 1 51 5 67 9 17 4 40 8 53 9 l23 1 -28 -37z m-253 -3 c26 -40 3 -70 -53 -70
-31 0 -45 7 -68 31 -27 29 -35 49 -25 60 11 11 138 -7 146 -21z m14150 -72 c0
-28 -42 -94 -67 -105 -38 -18 -63 -16 -103 8 l-35 22 30 13 c17 7 55 22 85 34
30 12 59 26 65 31 13 13 25 11 25 -3z m-963 -80 c35 -18 63 -36 63 -39 0 -7
-143 -91 -172 -102 -23 -8 -27 10 -18 70 9 53 34 103 53 103 6 0 39 -15 74
-32z m693 -25 c0 -34 -71 -116 -86 -100 -8 8 26 101 39 109 22 14 47 9 47 -9z
m-13741 -12 c11 -7 12 -13 4 -23 -7 -7 -17 -36 -23 -63 -18 -77 -22 -84 -30
-55 -14 43 -11 105 6 128 17 24 22 26 43 13z m13601 -15 c0 -17 -70 -82 -99
-91 -27 -8 -60 10 -71 41 -15 40 -14 41 58 51 98 15 112 15 112 -1z m-327 -6
c27 0 20 -23 -15 -56 -68 -60 -94 -63 -104 -8 -9 50 18 78 66 70 19 -3 43 -6
53 -6z m111 -129 c18 -20 51 -35 99 -45 34 -8 67 -59 67 -103 l0 -32 -68 67
c-47 48 -85 75 -125 92 -60 25 -65 30 -44 52 7 7 19 27 26 43 l15 30 6 -42 c3
-23 14 -51 24 -62z m-304 24 c0 -29 51 -75 91 -81 49 -8 164 -87 213 -147 37
-45 95 -160 101 -199 2 -13 8 -48 14 -78 14 -78 6 -214 -18 -290 -56 -179
-212 -344 -404 -428 -197 -87 -384 -128 -698 -153 -234 -18 -379 6 -626 102
-57 22 -105 44 -108 48 -2 5 46 60 108 123 l112 116 75 15 c41 9 90 19 107 22
64 13 47 26 -46 38 -27 4 -21 24 15 52 52 40 264 82 582 116 160 17 151 26
-46 49 -98 12 -265 3 -339 -16 -37 -10 -27 7 45 82 58 62 74 73 112 79 25 3
79 13 120 20 41 7 131 23 198 35 87 16 121 25 113 33 -16 16 -215 21 -300 8
-40 -6 -76 -9 -79 -7 -3 3 35 49 84 102 49 52 108 119 132 147 70 84 114 127
129 127 7 0 16 7 19 15 10 25 42 28 70 6 15 -12 39 -21 54 -21 32 0 91 38 127
80 25 30 43 32 43 5z m-13130 -199 c0 -33 -10 -57 -21 -50 -10 6 -12 57 -2 67
13 14 23 6 23 -17z m13735 -60 c20 -20 22 -29 15 -61 -11 -49 -31 -98 -44
-107 -6 -4 -20 22 -33 63 -23 67 -23 71 -6 99 21 36 36 38 68 6z m-13706 -261
c11 -43 18 -82 15 -85 -3 -3 -21 12 -40 32 -36 40 -43 74 -24 124 15 38 25 23
49 -71z m13746 -25 c12 -13 15 -27 11 -44 -8 -32 -45 -96 -56 -96 -10 0 -24
135 -15 149 10 17 40 13 60 -9z m-13600 -328 c-14 -2 -37 3 -52 10 -22 10 -29
21 -31 51 -2 21 2 45 9 53 9 12 19 3 55 -48 44 -63 44 -63 19 -66z m13566 71
c-13 -25 -61 -69 -61 -56 0 5 5 24 11 42 8 23 17 31 35 31 20 0 23 -3 15 -17z
m-11999 -60 c21 -20 38 -41 38 -46 0 -5 -27 -6 -61 -2 -67 8 -79 1 -79 -45 0
-41 -36 -90 -65 -90 -25 0 -75 26 -75 39 0 4 27 26 59 49 32 23 76 62 97 86
22 25 41 45 44 46 2 0 21 -17 42 -37z m187 -171 c87 -78 231 -197 279 -232 17
-13 32 -29 32 -35 0 -7 -33 -34 -72 -60 -40 -27 -95 -66 -123 -88 l-50 -40 46
7 c59 9 117 32 201 79 36 20 71 37 76 37 5 0 30 -17 55 -37 44 -36 45 -39 32
-60 -40 -61 -92 -321 -67 -337 17 -10 77 108 109 212 15 50 31 92 34 92 8 0
355 -260 424 -318 l30 -25 -65 -59 c-59 -54 -118 -102 -204 -166 -49 -37 -205
-110 -271 -127 -111 -28 -299 -14 -413 31 -148 59 -250 150 -331 295 -69 124
-97 252 -105 489 -4 91 -9 184 -12 206 l-5 41 40 -1 c52 -1 89 26 120 87 22
45 25 47 65 47 23 0 51 7 62 15 10 8 23 15 28 15 4 0 43 -31 85 -68z m-1608
14 c48 -32 50 -35 31 -45 -28 -15 -67 -14 -80 2 -14 17 -20 77 -7 77 3 0 29
-15 56 -34z m13282 -24 c-5 -20 -34 -56 -72 -87 -27 -23 -22 -12 28 58 36 49
52 60 44 29z m-12193 -24 c0 -38 -37 -88 -63 -88 -24 0 -52 23 -59 48 -2 7 20
22 52 36 70 30 70 30 70 4z m-819 -60 c22 -6 39 -15 39 -20 0 -14 -68 -9 -84
8 -28 28 -17 31 45 12z m601 -27 c-9 -16 -29 -37 -44 -45 -26 -16 -28 -16 -60
13 -18 16 -30 33 -26 37 9 9 72 21 115 23 l32 1 -17 -29z m-222 -8 c0 -15 -80
-73 -101 -73 -24 0 -79 45 -79 66 0 5 41 9 90 10 50 0 90 -1 90 -3z m12500
-111 c-28 -50 -155 -95 -155 -54 0 7 29 37 65 67 65 54 65 54 85 34 18 -18 19
-22 5 -47z m-12034 32 c-3 -9 -6 -43 -6 -77 -1 -62 -1 -62 -19 -40 -10 12 -22
39 -26 60 -6 31 -3 39 17 55 29 22 42 23 34 2z m10238 -108 l57 -34 -25 -19
c-13 -10 -42 -25 -64 -33 -51 -16 -72 -3 -72 44 0 31 23 76 39 76 5 0 34 -15
65 -34z m1566 -11 c0 -4 -7 -19 -15 -35 -17 -33 -63 -47 -95 -30 -21 11 -19
30 3 30 7 1 30 9 52 20 42 20 55 24 55 15z m-1303 -101 c24 -9 43 -20 43 -25
0 -15 -60 -40 -79 -34 -25 8 -36 75 -12 75 3 0 25 -7 48 -16z m1053 8 c0 -7
-47 -78 -64 -98 -1 -1 -11 -5 -24 -9 -18 -5 -29 1 -53 26 -18 20 -26 36 -21
41 6 6 41 18 78 28 86 22 84 22 84 12z m-1515 -32 c18 -34 81 -70 124 -70 41
0 78 17 133 62 26 21 49 38 51 38 2 0 5 -17 5 -37 0 -57 5 -70 39 -106 24 -25
33 -48 43 -107 8 -41 15 -82 17 -90 10 -42 3 -202 -11 -260 -37 -148 -97 -254
-192 -339 -144 -128 -293 -182 -570 -207 -95 -8 -316 21 -424 57 -77 25 -260
112 -260 124 0 14 496 469 517 473 8 2 27 -1 41 -6 125 -48 225 -88 324 -130
65 -28 120 -47 123 -42 9 14 -60 90 -115 127 -63 42 -201 108 -247 118 -44 9
-48 19 -19 46 20 19 33 22 77 20 50 -2 230 -31 289 -46 23 -6 22 -3 -12 27
-38 35 -131 73 -205 84 -24 4 -43 9 -43 12 0 6 79 83 237 233 28 27 54 49 57
49 3 0 12 -13 21 -30z m1175 -38 c0 -28 -99 -77 -136 -68 -26 7 -50 44 -37 56
7 8 47 13 141 18 17 1 32 -2 32 -6z m-366 -12 c45 0 14 -28 -41 -36 -51 -7
-93 7 -93 32 0 14 8 16 53 10 28 -3 65 -6 81 -6z m-217 -28 c-2 -9 -15 -42
-30 -73 -15 -31 -27 -60 -27 -64 0 -5 12 -21 27 -37 25 -26 26 -30 14 -67 -16
-54 -29 -59 -37 -14 -4 21 -20 73 -37 116 l-29 78 23 17 c13 9 37 28 54 43 32
29 47 29 42 1z m-10627 -75 c6 -43 10 -81 7 -83 -2 -3 -21 10 -41 29 -26 25
-36 43 -36 64 0 32 38 90 50 76 4 -4 13 -43 20 -86z m104 -308 c20 -33 36 -62
36 -65 0 -2 -20 -4 -44 -4 -56 0 -77 24 -66 74 16 74 28 73 74 -5z m1475 47
c26 -31 -35 -196 -73 -196 -22 0 -66 37 -66 55 0 6 11 22 25 35 14 13 39 45
56 72 33 52 40 56 58 34z m9104 -25 c6 -24 -24 -93 -58 -133 -31 -37 -31 -53
-1 -74 31 -19 42 -64 24 -98 -13 -24 -89 -86 -106 -86 -22 0 -42 -38 -36 -67
10 -51 -36 -112 -116 -153 -78 -40 -92 -21 -27 37 24 21 58 58 77 83 19 25 38
47 41 50 10 9 67 143 82 195 15 50 29 141 31 204 1 29 6 35 36 46 48 17 47 17
53 -4z m-8790 -214 c64 -48 117 -88 117 -90 0 -1 -44 -47 -98 -102 -70 -73
-106 -119 -129 -167 -33 -67 -53 -148 -37 -148 5 0 22 20 38 44 53 78 285 296
315 296 22 0 101 -62 94 -74 -4 -6 -33 -49 -64 -96 -78 -116 -117 -206 -133
-302 -10 -60 9 -52 52 20 22 37 64 101 94 142 29 41 67 96 83 122 37 57 52 64
85 40 26 -20 26 -22 19 -126 -2 -27 1 -51 6 -53 6 -1 23 20 40 47 16 28 33 50
38 50 6 0 78 -51 161 -113 83 -62 172 -128 199 -147 26 -18 47 -37 47 -41 0
-10 -101 -95 -191 -162 -239 -176 -513 -263 -715 -228 -94 17 -204 61 -265
107 -107 81 -240 280 -274 410 -18 71 -19 192 -1 301 11 67 19 89 44 117 17
20 36 53 43 74 10 35 13 38 42 34 47 -7 93 23 122 81 14 28 25 63 25 77 0 14
5 31 12 38 12 12 13 12 231 -151z m-493 5 c0 -35 -20 -77 -44 -94 -18 -12 -45
-9 -72 8 l-24 17 57 53 c32 29 64 53 71 54 7 0 12 -14 12 -38z m-1085 -57 c33
-25 63 -45 68 -45 4 0 7 -7 7 -15 0 -8 -17 -19 -40 -26 -33 -10 -43 -9 -65 5
-14 9 -30 28 -35 42 -12 30 -13 84 -2 84 4 0 34 -20 67 -45z m851 -140 c-31
-69 -49 -77 -86 -39 -16 16 -30 34 -32 41 -2 7 29 28 67 46 82 40 89 34 51
-48z m113 21 c8 -10 8 -23 -2 -52 -8 -21 -20 -69 -27 -106 -7 -37 -16 -65 -21
-62 -14 9 -10 97 6 118 9 11 15 41 15 68 0 49 8 59 29 34z m-683 -11 c31 -8
59 -17 61 -19 8 -8 -27 -66 -47 -76 -32 -17 -60 -2 -81 43 -33 73 -28 77 67
52z m334 -24 c0 -4 -10 -23 -23 -42 -31 -46 -60 -49 -97 -9 -17 18 -30 36 -30
41 0 4 30 10 68 12 37 2 70 4 75 5 4 1 7 -2 7 -7z m8015 -203 c24 -18 44 -35
44 -38 1 -6 -57 -46 -104 -72 -66 -37 -97 -12 -75 60 14 42 59 93 78 87 6 -3
32 -19 57 -37z m1285 -75 c0 -4 -23 -29 -51 -55 -54 -50 -100 -63 -127 -36
-10 10 5 21 70 54 84 42 108 50 108 37z m-8990 -73 c0 -16 10 -59 21 -95 12
-36 19 -68 16 -71 -10 -10 -73 16 -95 39 -44 47 -36 124 17 151 33 18 41 12
41 -24z m7942 18 c37 -12 68 -25 68 -29 0 -4 -16 -16 -36 -28 -39 -23 -84 -27
-102 -9 -13 13 -17 88 -5 88 4 0 37 -10 75 -22z m-474 -32 c16 -43 41 -66 84
-72 49 -8 111 12 159 52 23 19 44 33 46 30 2 -2 7 -19 10 -38 8 -54 35 -91 83
-115 l45 -21 -3 -54 c-5 -86 -31 -246 -47 -293 -54 -161 -139 -243 -310 -300
-178 -60 -312 -68 -560 -34 -82 11 -212 23 -287 26 -76 3 -138 9 -138 13 0 9
311 309 333 322 18 10 253 28 399 31 49 1 88 6 88 10 0 4 -20 17 -45 28 -35
16 -77 21 -185 26 -77 3 -140 9 -140 13 0 3 13 19 29 34 34 32 86 47 276 76
77 13 147 26 154 30 27 14 -59 30 -166 30 -118 0 -119 2 -39 68 28 23 83 72
121 107 39 35 72 64 75 65 4 0 11 -15 18 -34z m1168 -41 c-22 -17 -92 -20
-101 -6 -5 9 28 16 90 19 28 1 29 1 11 -13z m-341 -3 l40 -7 -25 -18 c-13 -9
-38 -17 -54 -17 -28 0 -66 24 -66 42 0 10 49 10 105 0z m-307 -92 c-15 -23
-35 -33 -43 -20 -3 5 7 16 22 24 36 19 35 20 21 -4z m-6285 -82 l37 -33 -20
-42 c-23 -51 -38 -54 -69 -12 -15 20 -29 29 -44 27 -20 -3 -22 -9 -23 -68 0
-73 -26 -140 -53 -140 -10 0 -28 11 -41 25 -23 25 -64 33 -75 16 -3 -5 0 -29
6 -53 11 -40 10 -49 -16 -106 -35 -78 -46 -88 -84 -73 -32 14 -99 96 -101 123
0 4 33 26 73 50 134 79 267 193 323 278 15 22 32 40 39 40 6 0 28 -15 48 -32z
m6317 -48 c11 -11 20 -27 20 -35 0 -24 -33 -83 -37 -65 -23 130 -21 138 17
100z m-7856 -81 c46 -64 56 -83 45 -90 -33 -21 -87 -1 -112 41 -24 40 -22 130
2 130 4 0 33 -36 65 -81z m1704 4 c26 -21 52 -42 58 -48 6 -5 48 -39 92 -75
45 -36 81 -69 81 -75 1 -5 -29 -26 -66 -45 -37 -19 -93 -59 -125 -89 -88 -81
-121 -156 -41 -94 76 60 266 163 299 163 12 0 41 -17 64 -38 l43 -38 -64 -31
c-82 -41 -168 -117 -198 -177 -12 -26 -20 -50 -17 -53 3 -3 24 11 46 31 68 61
213 144 284 162 25 6 35 -1 93 -57 65 -64 356 -390 351 -394 -2 -1 -95 -5
-207 -9 -185 -6 -402 -30 -513 -56 -75 -18 -300 -24 -368 -11 -155 31 -264
121 -292 241 -16 71 4 192 50 300 20 47 39 103 42 125 5 40 5 40 49 41 38 0
48 5 73 35 16 19 34 51 40 72 10 34 14 37 49 37 29 0 45 7 69 32 18 18 37 45
42 60 6 15 12 28 15 28 2 0 26 -17 51 -37z m6192 -162 c0 -34 -8 -48 -50 -93
-43 -46 -49 -50 -50 -30 0 13 5 32 10 42 6 10 11 37 12 59 1 34 6 42 27 50 45
17 51 13 51 -28z m-7626 -87 l77 -35 -25 -20 c-13 -10 -38 -22 -55 -25 -41 -9
-81 31 -81 81 0 19 2 35 4 35 2 0 38 -16 80 -36z m696 -60 c-27 -54 -60 -80
-87 -66 -23 13 -50 43 -55 61 -4 15 155 75 160 60 2 -5 -6 -30 -18 -55z m-293
-18 c1 -1 -9 -15 -23 -31 -15 -17 -33 -39 -43 -51 -9 -11 -28 -28 -42 -37 -25
-17 -27 -16 -54 5 -29 22 -55 73 -55 107 0 19 5 20 108 14 59 -3 108 -6 109
-7z m7087 -72 c23 -9 20 -28 -10 -64 -31 -36 -73 -60 -106 -60 -20 0 -15 8 35
57 31 31 57 60 57 65 0 10 3 10 24 2z m-6620 -86 c-4 -13 -11 -34 -17 -48 -11
-25 -11 -25 -15 8 -4 43 3 62 23 62 12 0 15 -6 9 -22z m6360 -128 c-18 -18
-42 -32 -60 -33 -45 -3 -36 23 16 44 67 27 79 24 44 -11z m-1044 0 c0 -5 -5
-10 -11 -10 -7 0 -30 -15 -53 -33 -48 -40 -79 -57 -100 -57 -22 0 -21 54 2 85
15 22 25 24 90 25 41 0 72 -4 72 -10z m227 -24 c10 -10 -54 -65 -85 -73 -32
-8 -52 14 -52 54 l0 35 65 -4 c35 -2 68 -8 72 -12z m267 -34 c15 -9 -26 -32
-58 -32 -29 0 -66 24 -66 42 0 9 106 1 124 -10z m262 -18 c-33 -29 -89 -31
-94 -2 -3 17 16 21 98 26 l25 1 -29 -25z m-1031 -14 c-12 -19 15 -76 44 -93
36 -21 92 -22 130 -2 16 8 44 32 62 55 18 22 36 40 40 40 4 0 10 -12 14 -27 3
-14 24 -43 45 -62 47 -43 115 -205 134 -315 17 -99 -8 -253 -50 -306 -6 -8
-15 -24 -18 -35 -10 -29 -82 -105 -151 -157 -75 -56 -236 -135 -380 -186 -132
-47 -162 -55 -330 -88 -270 -53 -330 -66 -417 -95 -50 -16 -92 -29 -94 -29 -8
0 34 75 90 160 30 47 60 92 65 100 6 8 31 45 56 83 25 37 45 71 45 76 0 5 4
11 8 13 5 2 25 29 45 61 52 80 63 85 437 172 85 20 179 41 208 48 87 20 67 32
-58 35 -89 2 -149 -3 -268 -23 -85 -15 -156 -24 -159 -22 -3 3 9 23 27 45 29
36 46 45 178 91 81 28 157 51 168 51 36 0 84 12 84 21 0 15 -183 10 -236 -6
-88 -27 -88 -18 -4 85 181 221 237 287 255 302 22 19 40 24 30 8z m573 -12
c16 -16 15 -49 -3 -85 -15 -30 -43 -60 -48 -52 -1 2 -13 16 -26 31 l-24 28 39
44 c44 50 45 51 62 34z m-5637 -45 c9 -27 19 -56 23 -65 12 -27 -20 -23 -49 7
-27 26 -33 73 -13 93 19 19 23 15 39 -35z m5721 -198 c9 -20 8 -33 -7 -65 -10
-22 -21 -40 -24 -40 -4 0 -15 24 -26 53 -11 28 -21 55 -23 59 -3 6 21 13 56
17 7 0 18 -10 24 -24z m-5524 -49 c45 -30 45 -40 0 -51 -35 -9 -68 23 -68 65
0 34 -3 35 68 -14z m1332 1 c0 -18 -21 -37 -40 -37 -20 0 -53 34 -43 43 12 13
83 8 83 -6z m-186 -6 c9 -14 -69 -91 -92 -91 -19 0 -82 61 -82 80 0 5 28 11
63 13 34 2 72 4 84 5 12 1 24 -2 27 -7z m-264 -16 c0 -11 -40 -81 -59 -103
-27 -32 -60 -25 -88 17 -44 65 -42 67 135 89 6 1 12 0 12 -3z m-279 -63 c-14
-27 -69 -72 -87 -72 -20 0 -66 48 -61 63 3 10 144 38 155 31 2 -1 -1 -11 -7
-22z m855 -2 l42 0 132 -177 c90 -121 127 -179 117 -181 -8 -2 -42 4 -75 12
-33 9 -76 16 -95 16 -20 0 -46 4 -59 9 -37 13 -118 23 -118 14 0 -14 235 -103
330 -126 64 -15 91 -26 107 -46 13 -14 23 -31 23 -37 0 -15 -47 -24 -124 -24
-56 -1 -59 -2 -41 -16 28 -21 92 -37 155 -40 l55 -1 42 -79 c23 -44 56 -113
72 -154 16 -41 57 -131 90 -200 34 -69 61 -128 61 -132 0 -23 -23 0 -63 61
-62 93 -133 152 -252 210 -119 58 -250 100 -440 141 -200 43 -259 66 -321 123
-59 54 -83 103 -91 191 -8 96 24 201 96 308 15 24 32 53 35 66 4 12 11 22 15
22 5 0 14 14 21 30 15 35 21 37 45 10 27 -30 95 -27 124 4 21 22 25 23 49 10
15 -8 46 -14 68 -14z m-1156 -7 c7 -7 -49 -53 -65 -53 -16 0 -45 38 -45 58 0
11 11 12 53 7 28 -4 54 -9 57 -12z m5288 -46 c2 -17 -10 -49 -32 -87 -20 -34
-36 -68 -36 -77 0 -8 14 -28 30 -43 37 -35 39 -68 5 -109 -19 -22 -38 -32 -71
-37 -25 -3 -47 -4 -49 -2 -3 2 8 42 24 89 29 83 54 219 45 244 -5 13 54 57 71
52 6 -2 11 -15 13 -30z m-4618 -84 c0 -5 -11 -21 -25 -38 -27 -34 -36 -14 -9
23 15 21 34 30 34 15z m-98 -235 c2 -7 1 -35 -2 -63 l-5 -50 -22 29 c-23 29
-28 52 -17 80 7 19 40 21 46 4z m4511 -161 c-17 -29 -71 -65 -99 -67 -6 0 16
29 50 64 62 66 86 68 49 3z m-4423 -152 c17 -11 11 -25 -10 -25 -31 0 -70 44
-70 79 0 64 12 67 41 8 16 -30 33 -58 39 -62z m4210 -4 c0 -4 -10 -23 -23 -41
-23 -36 -69 -67 -102 -70 -45 -5 -86 1 -83 10 3 9 182 106 201 109 4 1 7 -3 7
-8z m-3992 -146 l83 -32 -50 -17 c-97 -32 -131 -17 -147 64 -7 30 -5 33 12 25
10 -4 56 -22 102 -40z m3563 -45 c-24 -21 -61 -27 -61 -11 0 10 45 29 70 30
10 0 7 -6 -9 -19z m-3361 -9 c19 -5 52 -12 73 -16 20 -3 37 -10 37 -14 0 -18
-113 -101 -136 -101 -27 0 -44 31 -44 80 0 60 9 67 70 51z m3150 -66 c-37 -38
-64 -44 -92 -18 -39 35 -20 46 91 51 l35 2 -34 -35z m-2851 -11 c30 -8 59 -18
64 -23 11 -11 -64 -86 -93 -94 -28 -7 -50 23 -59 82 -9 55 -5 65 18 56 9 -4
41 -13 70 -21z m2601 -6 c0 -20 -82 -88 -106 -88 -25 0 -59 41 -52 62 3 7 31
18 64 24 80 16 94 16 94 2z m-2341 -104 c12 -11 11 -18 -10 -48 -13 -20 -32
-36 -41 -36 -25 0 -50 43 -56 95 l-5 45 49 -21 c27 -12 55 -27 63 -35z m2032
38 c-16 -30 -90 -93 -128 -108 -38 -16 -53 -12 -53 15 0 34 35 63 105 87 85
29 88 29 76 6z m-1876 -135 c20 -29 19 -44 -5 -52 -45 -14 -80 23 -80 85 l0
29 35 -20 c20 -12 42 -31 50 -42z m47 -136 c3 -20 -3 -25 -41 -37 -24 -7 -61
-27 -82 -44 -44 -35 -47 -30 -28 46 l12 46 41 -6 c34 -5 44 -3 59 15 21 23 33
17 39 -20z m75 7 c-3 -8 -6 -5 -6 6 -1 11 2 17 5 13 3 -3 4 -12 1 -19z m1674
-18 c13 -10 19 -19 12 -20 -18 0 -63 22 -63 32 0 14 27 9 51 -12z m161 -99
c16 -30 26 -57 23 -59 -7 -8 -113 91 -114 106 -1 9 9 12 32 10 28 -3 36 -10
59 -57z m-1795 25 c5 -4 93 -249 90 -252 -2 -2 -25 3 -51 12 -26 9 -50 14 -53
11 -3 -3 33 -45 79 -94 84 -88 85 -89 128 -213 24 -69 51 -144 62 -168 10 -24
18 -48 18 -54 0 -5 -43 31 -96 81 -53 50 -142 121 -197 159 -133 88 -202 156
-217 211 -22 84 25 208 106 280 43 38 50 40 88 35 22 -4 42 -7 43 -8z m1565
-49 c82 -67 118 -120 118 -174 0 -70 -49 -153 -150 -254 -77 -77 -227 -199
-245 -199 -4 0 -24 -13 -45 -30 -21 -16 -41 -30 -44 -30 -4 0 -38 -23 -77 -51
-38 -28 -72 -49 -75 -46 -5 5 51 187 72 232 12 26 64 70 99 84 6 2 26 14 46
27 36 23 189 105 246 133 41 20 42 31 0 31 -62 0 -168 -29 -239 -64 -39 -20
-72 -35 -74 -33 -10 10 20 68 41 79 41 23 245 161 242 164 -5 5 -120 -27 -147
-41 -14 -7 -35 -16 -48 -19 l-22 -7 20 51 c41 105 56 124 112 152 97 49 104
49 170 -5z m-1888 -36 c3 -5 -3 -28 -13 -52 -10 -24 -21 -53 -25 -64 -7 -19
-8 -19 -21 5 -17 31 -29 96 -20 110 8 12 72 13 79 1z m2230 -76 c16 -24 16
-28 -2 -68 -18 -40 -60 -92 -67 -85 -2 2 1 24 6 48 10 43 8 75 -6 113 -12 30
49 23 69 -8z m-2261 -191 c6 -16 21 -46 34 -66 30 -49 29 -52 -9 -44 -65 13
-93 63 -66 121 14 32 29 28 41 -11z m2207 -56 c0 -44 -82 -117 -117 -104 -12
5 -8 15 20 54 18 26 37 55 40 64 5 15 10 16 32 6 14 -6 25 -15 25 -20z m-1983
-184 c43 -31 84 -59 91 -61 6 -3 12 -11 12 -18 0 -18 -104 -31 -135 -17 -42
19 -60 64 -56 135 1 9 3 17 5 17 3 0 40 -25 83 -56z m1813 11 c0 -12 -39 -82
-52 -92 -22 -19 -65 -26 -74 -12 -5 8 12 29 47 60 48 43 79 60 79 44z m-1595
-165 c41 -30 75 -58 75 -62 0 -4 -18 -20 -40 -34 l-41 -27 -27 20 c-15 11 -32
35 -38 54 -17 52 -24 111 -13 107 5 -2 43 -28 84 -58z m1405 1 c0 -36 -51 -91
-85 -91 -26 0 -47 21 -37 36 9 14 96 74 120 83 1 1 2 -12 2 -28z m-1210 -156
c7 -8 21 -13 30 -10 13 4 19 -1 24 -20 13 -51 -15 -59 -64 -19 -30 26 -60 72
-60 94 0 12 48 -19 70 -45z m1018 31 c6 -29 -56 -86 -93 -86 -38 0 -59 18 -44
37 7 7 15 13 20 13 5 0 28 13 51 30 47 32 61 33 66 6z m-185 -118 c4 -13 0
-29 -8 -38 -8 -9 -15 -22 -15 -28 0 -7 -3 -12 -8 -12 -4 0 -13 -12 -19 -28
-14 -31 -60 -62 -92 -62 -47 0 -15 71 61 138 33 28 64 52 68 52 4 0 10 -10 13
-22z"/>
</g>
</svg>
